<svg width="97" height="44" viewBox="0 0 97 44" fill="none" xmlns="http://www.w3.org/2000/svg">
<path d="M31.3882 6.23047H17.3892V13.0375H24.608V30.9359H17.3892V37.743H27.8665L31.3882 34.2073V6.23047Z" fill="#F7931E"/>
<path d="M6.78015 30.9359V13.0375H13.999V6.23047H3.52169L0 9.76611V37.743H13.999V30.9359H6.78015Z" fill="#F7931E"/>
<path d="M90.2198 25.3905V30.9362H75.4829V37.7433H93.4702L96.9999 34.1996V18.5835H75.4829V25.3905H90.2198Z" fill="#F7931E"/>
<path d="M96.9919 6.23047H75.4829V13.0375H93.8452L96.9919 9.87823V6.23047Z" fill="#F7931E"/>
<path d="M69.2213 6.23047L65.6118 9.8542V37.743H72.0928V6.23047H69.2213Z" fill="#F7931E"/>
<path d="M35.6077 39.8336L35.6356 39.8056V39.8016L37.3147 38.0958H37.3187L61.3523 13.6907V4.11279L35.6077 30.2357V39.8336Z" fill="#F7931E"/>
<path d="M52.0196 0L35.6077 16.7533V26.3392L52.0196 9.58989V0Z" fill="#F7931E"/>
<path d="M44.9124 43.9736L61.3522 27.1883V17.5664L44.9124 34.3837V43.9736Z" fill="#F7931E"/>
</svg>
