<svg xmlns="http://www.w3.org/2000/svg" width="593" height="499" version="1.2"><style>.a{fill:#fff}</style><path fill-rule="evenodd" d="M297.3 126.7h.1c2.5.1 3.5 1.4 4.6 3.4.5.9.9 2.2 1 3.2 1.4-.2 2.3.2 3 .5.6.2 1.6 1.2 1.9 1.9.5-.8.9-1.2 1.8-1.5.8-.2.9-.3 3.1.1 1.1-1.4 2.4-2.5 3.9-3.5.9-.5 1.7-.9 2.8-1.2 1.4-.3 2.5.1 2.4.7-.3.9-1.8 3.2-2.5 5.3a61 61 0 0 0-3.7 16.1l1.2 1a15 15 0 0 1 4.2-1.5c1.5-.3 3-.5 3.8 1.4.6 1.5 1.2 4.4 1.4 7.3.2 2.9 0 5.8-.9 7.1-.6 1-1.3 2.2-2.8 3.2 1.3 1.4 3.5 2.3 7.7 2.2 1 0 1.7-.8 2.3-1.4.3-.4 1.6-2.1 1.6-2.4.2 1.5.5 3.1.4 4.6-.1 1.9-.3 2.7-.8 5a7 7 0 0 1-1 1.6c-.4.6-1.8 1.6-2.4 1.9-1.4.8-1 .8-1.1 1.3.6.8 1.4 1.5 1.6 2.4.5 1.7 1.1 5.3-.7 9.3.5 1.4.7 2.1.9 3.5.1 1 .1 2.6-.1 3.6-.3 1.4-.9 1.7-1.1 3.6 1 2 2.7 6.4 3.3 8.4.4 1.2 1.2 2.7 1.8 3.5.5.7 1 1.4 2.6 1.8.9.3 1.6.7 1.7 1.4-.4.6-2.4 1.2-3.3 1.2-1.6.1-3.3-.1-4.9-.4-2.9-.6-4.9-2.4-7-3.5.9 2.1.3 9.9 0 12.6a23 23 0 0 1-5.3 11.1c1.2 2.1 2.9 5.7 4.5 8.1.7 1.1 3.8 2.9 4 4.3-2 .3-3.9.4-5.7.2 1.2 3.2 3.6 6.9 4.9 10.1l7.3 16.5c2.2 4.9 5.5 10.6 8.1 15.5.9 1.8 5.7 10.5 6.8 12.2 1.9 2.8 4.4 6.3 7.5 9.3 7.2 7 11.9.5 11.2-6.4-4.8-.6-9-7.3-10.2-10.8l-3-1.5a17.2 17.2 0 0 1-7-10.1l-.5-.3c-1.5-.8-3.4-3.5-4.9-7.3-.6-1.5-.9-3.3-.7-5.7a9 9 0 0 1-3.5-5.3c-.3-.8-.5-1.8-.7-2.9-.2-1.5-.3-3.2-.1-5.5l-1-.9a9.8 9.8 0 0 1-2.3-4.8c-.5-2.2 0-4.9.8-6.7-1.5-2-2.6-4.7-2.5-6.9.1-1.5.5-4 1.2-5.3l-.8-1.8c-1.5-4.7-.1-7.6.9-12.2 1.4 0 .8 2 5.1 4.2 3.1 1.5 4.5 1.3 7.1 4.2l.1.1c1-5.9 5.3-15.6 7-18.5 3.2-5.4 6.4-10.1 9.3-14-1-.8-3.3-2.7-5.2-3.2a13 13 0 0 0-5.9.2c-3 1.4-2.4 4.6-2.4 7.1 0 .8-4-2.4-4.5-3a11.3 11.3 0 0 1-2.6-5.6c-.3-3.6.3-6.2 3.7-7a10.8 10.8 0 0 1-4.1-4.8c-.5-1.9-1.1-4.2-.1-8q-.8-1.1-1.3-2.4c-1.2-2.8-1.6-9.1.8-12.2l-.4-1.8a17.8 17.8 0 0 1 5.8-14.6c1.4-5.3 3.6-7.6 7.2-9.9-1 2.1-1 6.4-1.1 8.3-.1 2.3.4 4.6.9 6.6.6 2.6 2.6 5.8 3 9.2l.2 1.6 1.6-2.4a8.8 8.8 0 0 1 8.4-2.8c6 1.1 6.4 6.1 7.5 8-.9.4-4.2-2.9-6.7-.2-1.4 1.4-1.8 3.1-1.8 5.6.2 6.5 4.7 13.8 8.6 17.9l3.6-3.5c4-4 5.2-5.9 7-9.4.7-1.5 3.8-13.7-5.4-12.6-1.3.1-4 1.1-2.8-1.5 1.5-3.4 3.1-4.8 6.2-6.1 4-1.6 8.1.6 10.1 3.7 1.8-8.9 9.1-13.3 9-22.6 4 1.9 5.3 6.9 5.3 12.3v.6c3.1 3.5 3.5 8.1 2.9 12.2l-.6 2.3c.3 1.7.7 5.2.6 6.5-.2 1.8-.5 3.9-1.2 5.4l-.9 2c.3 7.9-3.7 12.3-6.7 13.7a11 11 0 0 1 2.7 3.9c1.1 3-2.6 9.6-7 10.9.4-2.7-.7-6.5-3.5-7.8-3.3-1.6-6.8-.7-9.3.6a60 60 0 0 1 9.5 13.2c2.9 4.8 4.2 7.8 6.4 13.3 1 2.4 1.4 5.5 1.5 8.5.6-.6 1.4-1.2 2.4-1.8l2.8-2 .9-.6 2.8-2.1c2.9-1.8 3.8-4.4 5.2-4.9 1.5 1.9 1.6 7.4.9 9.6l-.4 1.1a15 15 0 0 1-.4 13.1c1.8 4.8-.1 10.6-3.2 14.7 1.1 3.7-.8 9.9-2.2 12.3q-.8 1.3-1.8 2.4c-.1 4.5-.9 7.9-3.5 10.3-.9.9-1.7 1.5-2.5 2.1a14 14 0 0 1-3.6 8.7 26.8 26.8 0 0 1-5.7 4.7c.5 1.9-2.7 6.5-3.4 7.3a17.8 17.8 0 0 1-6.2 4.9h-.2c.1 2.1.1 4.1-.5 6.2-.4 1.9-1.5 4.6-1.7 6.7.4-.3 1.9-1.5 3.8-2.1 2.7-.8 5.8-2.1 7.6-3.1 2.4-1.3 5.9-4.7 7-4.2.3.1.3.7.2 1.5-.2.9-.9 2.4-1.1 3.1-.1.5-1.8 3.8-2.1 4.5a11 11 0 0 1-3.1 3.8c-.8.7-7.4 3.5-5.5 4.2 4.1 1.5 7 1 12.2 1.2.9.1 1.2-.7 2-.6l-.4.9-.4.6-1.4 1.5c-1.1 1.1-5.1 1.8-6.4 2.5-3.1 1.6-1.8 1.4-5.4 1.7-1.6.3-2 1.1-3.7 1.1-1 0-3.4 2.1-4.6 1.3-.7-.5-1.8-1.3-1.8 0 .2.9-3.6-3.5-3.5-2.1.1 1.3-3.2 3.3-3.2 4.6-.1 1.6-7.4-2.3-11.7-6.5-4.5-4.5-9.8-8.2-14.6-12.5-3.6-3.2-6.9-7-9.4-11.1.7 9.8.3 20.4-.7 29.2 1.1.3 4 3 4 3.8-.1.5-2.9-.6-3.1-.8-.3-.3-2.6-1.8-2.8-2.2l.4-3.7.4-4.8.2-8.7c.1-5.9-.7-13.3-1.6-19.2l-.6-1.7c-1.1-3.3-2.3-6.5-3-9.8-.1-.1-.1-.6.1-.6.2-.1.7-.2.8-.1.8.3 3.1 7.7 4.4 11.3.9 2.5 6 10.4 7.9 12.3 2.9 2.9 7.2 7.4 10.1 9.7 2.1 1.6 9.9 8.1 12.2 11.1 2.9 3.9 7.9 1.1 7.9-.6 0-2.6 3.1.7 1.9-1-.9-1.3-1.4-2.9-2-4.3-.1 0 .5-1 1.1-.3 1 1.1 1.4 3.1 2.9 4.1 1.2 1 3.2-.6 6 0 4.4 1.1 3.6-1 8-2.4 1.5-.5 6.6.5 6.3 0-4.9-2.5-3.2.2-4.8 0-3.3-.6-4.2-1.8-7-2.7-1.1-.3-4.3-.1-6-.2-1.6-.2-2-.8 1.4-1.6a59 59 0 0 0 7.5-2.1c5.4-2.3 7.3-5.3 9.3-10.2.5-1.1-1.7 1.1-1.7 1.2a11 11 0 0 1-3.1 1.5c-6.2 1.4-11 3.9-14 6.3-.6.6-1.2.8-1.3.6-.3-.4.3-1.5.7-2.1 2.8-3.3 3.7-9.9 3.7-15-2.9.1-5.3-.1-11.1-.2.4 5.1-.8 8.4-3.9 10.7-4 2.9-9.1-1-10.9-2.8a78.4 78.4 0 0 1-5.3-5.9c-6.8-10-11.6-20.4-16.6-30.4-4.8-9.2-8.2-20.8-13.9-29.3q-2.3-.5-4.7-1.7c-3-1.5-4.7-3.6-6.7-5.7l-2 7.1c-.6 2.3-1.2 3.9-.6 7 .2 1.1 2.1 1.8 1.9 3.1-4.7.2-9.7-6.9-11.3-9.7a31 31 0 0 1-2.9-11.1l-1.5 2.4a34 34 0 0 1-6.5 5.5c-1 .5-4.9 2-7.6 1.9-1.7 2.6-5 3.9-6.7 4.7-1 .5-2.1 1-3.7 1.2-1.2.2-2.4-.3-1.8-1.5 0-.2 1.7-1.1 1.9-1.4.5-.6 1-1.4 1.3-2.1.4-.9 1.4-4 1.5-4.9.6-3.8 1.1-7 1-10.1-1.4 1.5-2.9 2.1-4.8 2.9a18.7 18.7 0 0 1-15.2.2l-2.5.8c-.6.3-2.4.4-2.9.5h-2.5c-3.5 1.3-15.9 9.2-17.8 10.4-3 1.9-7.4 4.5-10.5 5.4-8.2 2.3-10.5.2-11.2-.8-.6-.8-.6-1.5-1.8-2.4-1-.8-1.6-1.2-2.9-1.3l-.2 1.4c-.9 3.6-5.4 3-7.2.7l-.6-1c-.6.2-1.6.5-1.8.7a6 6 0 0 0-1.7 2.2c-.3 1.2-.6 3.7.4 4.1 2.2.9 5.6 1.7 8.8 1.4 2.1-.2 5.1-2.3 7.1-2.3 4.6 0-1.7 2-3.5 2.9a10.7 10.7 0 0 1-8.1.8h-.1l-2.2-.7h-.7c-1.5 0-5.4 1.6-5.4 3.3l.1.4c1 0 2 .2 2.8.7 1.1.7 2 1.9 2.3 3.9.2 1.1-.2 2.1-1 2.9-.8.9-2.1 1.4-3.2 1.6l-.1.3c.1 1.5 1 2.1 2.4 2.8 1 .5 2.3.3 3.3.8q.2-1.1.6-2c1.1-2.7 6.3-5.3 9.6-7.7 2.5-1.9 4.3-4.2 6.9-5.9 1.4.4.1 1.7-1.7 3.7-2 2.3-3.6 3.8-7.7 6.3-2.5 1.5-4.2 2.7-5.2 4.5-.7 1.3-1.6 3.5 0 5.7l.3-.5c.7-.9 1.7-1.7 3.4-2.1 1.7-.5 3.1.3 3.9 1.6a5 5 0 0 1 .4 4.1l-.5.9c2.4 1.3 6-.2 8.3-3 .7-.7 1.5-2.5 1.6-3.7.3-2.8-.6-3.4-1.7-3.9-.3-1.8 2.5-1.4 3.2.8 2.1-.1 5-.7 6.4-2.1 0-1.2.4-2.4 1-2.4s.8.3.4 1.3c-.2.8-.2 1.7.3 2.5.6 1 1 1.5 1.7 2.1.6.5 1.2.8 2 .9v-.9c0-.8 0-1.6.6-2.3v-.1c.6-.6 1-1.2 1.7-1.5.9-.3 1.7-.3 2.7.2 2.1.9 2.8 2.5 2.8 4.2 1.2-1 2.3-1.8 2.4-3.6.2-1.9-.2-2.7-1.4-3.9-.3-.3-2-1.4-.3-1.6 1.7-.3 1.6.5 4.3.4 1.2 0 1.7-.7 2.6-.8a6 6 0 0 1 2.4-.5c.9 0 2.8.7 3.2 1.5.1.3.7.9.7 1.3l.3 1c1.9-2.2 3.3-3.2 3.4-6.3.1-2.6.7-4.1 1.6-2.1.4.9.1 5.6.1 7.6-.1 1.6 1.2 6.9 2.3 7.6-.1-3 .7-7.1 1.9-9.6.8-1.7 2-5.2 1.2-7.3 1.4-1.1 2 1.9 1.7 3.7-.4 1.7-1 3.7-1.7 5.1 2.3-1 3.8-2.9 4.8-4 .6-.8 1.1-4 1.2-7 1.9.7.9 3.9.6 5.8-.1 1.1-.5 2.4.1 3.4.6.9 2.5 3.8 4.1 4.3-1.1-1.5-1.2-5.2 0-7.9.9-1.8 1.9-5.9 2.3-9.1 1.4-.2.8 2.3.7 3.3l-.5 2.4c-.1.4-.3.8-.3 1.3v1.4l3-3c.8-.9 1.1-2 1.9-3.4.3-.6 1.5-1.7 1.6-2.4 0-.6-.2-2.8.5-3 1.2-.1.8 3 1.9 4.6l2.8 4.2c.3.4 1.8 2 1.6 2.2-.8.8-3-1.8-3.3-2.3-.7-.9-2.2-3.1-2.5-4.3-.5.5-1.7 2.9-2.4 4.5-.3.7-.8 1.3-1.5 2 7.1 6.7 15.1 10.7 23.8 17.9 4.2 3.5 8.3 6.7 10.8 11.9.2.4-1 .7-1.5 0-.3-.4-1.1-1.2-1.5-1.9-1.2-2-5.7-3.7-8.3-3.7 1 .1 8.7 7.5 8.7 12 .1 4-3.4 5.3-.7 10.7.5 1 1.8 1.7 2.7 2.2 1.5-5.3 3.3-12.5 3.8-17 .5-3.9.1-7.5.1-11.3 4.8-.8 1.3 18.9.6 21.7-2.2 8.5-5.6 16.8-6.8 26.1a53 53 0 0 1-3.9 13.6c-1.7 2-2.7 2.8-4.8 3.8-.2.1-10.1 1.2-9.3-3.9 1.5-.8 2.9 2.7 4.7 2.8 2.1.1 5.5-1.7 6.4-2.8 2.3-2.6 3.5-7.5 4.2-11.5l1.6-8a87.3 87.3 0 0 1-27.8 4.8c0 1.1 0 3.6-.5 5.1l-1 3.9-.5 2.7-.3 1.7v2.9c.2 2.9-2.9 0-2.3-2.3.6-2.8 1.5-7.8 2.1-10 .5-2.1-.1-3.5.4-6.2 2.7.1 4.9.3 8.2-.1 7.6-1 15.7-2 22.3-5.2.8-3.4 1.5-6.6 2-8l.2-.7c-3.5-1.9-5-4.1-5-8.2 0-2 1-3.6 1.4-5.4a47.9 47.9 0 0 0-15.2-1.7c-7.9-.4-14.5 2.4-22.2 2.4-2.8-.3-5.2-1.3-7.2-3.3q-.6-.6-1-1.3c-.3-.8-.4-1.5-.4-2.4 0-.7.4-1.6.8-2.1-.7-.1-1.5.1-2.4.4-.7.7-.9 1.9-.9 3 0 .6.5 2.2.8 2.8.2.3.8 1.4-.2 1.4-1.3 0-2.1-4.2-2.2-5.9-1.7 1.2-3.1 2.9-3 5 0 1.2 1.2 4.3-.3 4.3-.7 0-2-.8-2.7-1-1.2-.4-2.8-.4-3.8-.4-2.5 0-6.3 1.6-8.5 2.7l-.3.1a49 49 0 0 1 8.6.5l4.6.8c1 .1 2.1 0 2.9.2.2 0-.2.7-.6.7-3 0-5.6-.6-8.7-.9-2.1-.3-6.3 0-8.7 0l-1.4 1.1-2 1.9-1.8 1.9a42 42 0 0 1 13.7-.4c3.9.6 8.1 1.5 12.4 1.7 2.9.1 14.1-2.7 12-.6-.4.5-1.4.6-4.1 1.2-2.7.7-5.9.7-7.9 3.9a50.2 50.2 0 0 0-4 10.9l-1.1 5.3c-.6 2.6-1.7 3.5-3 4.7-.6.7-4.5 1.8-6.3 2.3-1.1.3-6 .5-7.5.5-1-.1-1.5.1-4.3-.6 0 0-1-.5-1.5-1.2-.6-.8-.8-3-1.3-5.7-.4-2-1.1-3.5-3.5-3.9a5.6 5.6 0 0 1-1.9 3.6c-1.4 1.5-3.3 1.4-4.9.4-1-.6-1.8-1.6-2.2-2.7a5 5 0 0 0-2 3.5c2.8 2.3 4.5 2.4 9.1 3.6.7.2 4.6 1.5 2.8 2-.9.3-8.7-.9-10.6-2.3-2.6-2-6.8-4.8-10-1.6l-1-.2c1.5-1.9 2.5-3 5.4-3.1.9 0 1.5.4 2.7.8l.6-1.8c.4-.7 1-1.8 1.6-2.3l1.4-1v-3.3c-.1-1.5.1-.4-.4-3l-.3-1.2 1.2.2c1 .2 4.1 1.5 6.3 3.6q1 .9 1.6 2.1c2-.1 3.5 1.4 4.7 3.3a14 14 0 0 1 1.7 6.4c.2 2.7 2.1 2.6 4.8 2.7 1.6.1 3.1.1 5.3-.2 5.3-.8 8.2-2.4 9.1-5.1 1.2-3.9 1.4-6.4 2.3-9.2.4-1.6 1.5-4.6 2.2-6 .7-1.6 2.4-3 1.7-4.2-3.3-.6-7.2-.6-10.8-1.4a32 32 0 0 0-17.7 1.5c-.4.2-.5-.5-.4-.7.4-2.4 7.9-8.7 9.2-9.3 2.5-1.5 5.8-3.6 9-3.7 1.8-.1 4-.2 5.8 0 .4.1.8.3 1 .2.3-.2 0-1.8 0-2.9.1-1.6 2.6-4.7 4.2-5.5 1.2-.7 2.4-1.1 3.7-1.4 1.7-.3 4.2-.4 5.5.5-1.2.8-2.8 1.2-2.8 2.9 0 2.2 2.4 3.5 4.3 4.3 3.6 1.4 9-.4 12.8-.7a94.2 94.2 0 0 1 21.8-.5l4 .5 1.4.3-.1-.2c-.5-1.9-2.8-4.1-4-5.5-.4-.5-2.2-2.5-4-4.1-1.9-1.7-3.8-3.1-2.6-3l6.9.4a204 204 0 0 0-12.8-10 92.8 92.8 0 0 1-14.7-11.3l-2.8 2.1c-1.3.9-1.2 4.7.6 8.1-.5 1.8-4.2-1.3-4.9-1.9-1.3-1.2-2-2.7-2.6-4.3l-2.7 2.3c-.9.6-2.9 1.6-3.6 2.5-.6.7-.6 2-.7 3l-.1 2.6-.1 2.7c-1.3.3-4.5-4.6-4.9-7.4-.2-.9-.1-1.5-.1-2.1.1-.5 0-1-.3-1.2-.3-.3-.3-.3-.7-.3-.8 0-1.3 2.5-3.6 3.8-.5.3-2.7 1.2-2.8 1.1 1.6-1 2.3-4.7.5-5.6-1-.5-2.1 0-5.5.7-1 .2-1.8-.2-1.8 1.3a9 9 0 0 1-.7 5.1c-.8 1.7-2.2 1.9-3.4 2.8-.2.6-.5 1.3-.9 1.9-1.7 2.7-3.6 2.7-4.9 3l-1.2.3.1-1.2c.1-.6.1.1.1-1.1l-.1-2.6c-1.1-.3-2.9-1.2-3.4-1.7-.3-.4-1.3-1.2-2-2.4l-.2-.5c-.9.7-1.7 1-2.9 1.2l-3.6.2c.1 4.5-.6 5.6-3.6 8.7-1.2 1.2-2.7 1.6-4.7 2-.9.1-2.1.2-2.6.1a9 9 0 0 1-1.9-.7c-.5.5-1 .9-1.3 1.4-1.3 1.9-1.5 2.1-1.7 2.7l-.3 1.5-1.1-1.1a13 13 0 0 1-2.4-5.6c-.2-.8-.2-1.6-.1-2.4a8.3 8.3 0 0 1-1.9-4.6c-.5-.3-1-.6-1.9-.7-.6-.1-2.2-.6-3.1-1.2-1.5-1-2.6-1.8-2.4-3.9a14 14 0 0 0-6.4 1.5l-1.3.8v-1.5c0-1 .3-2.6.4-3.1.7-1.9 3.2-4.9 4.8-5.8l1.3-.6v-.2c0-.6.1-1.6.8-2.4a8.4 8.4 0 0 1 4.2-3c-2.8-2.5-.7-7.8 3.4-9.1l-.7-1.5c-1.2-2.2-1.3-1.9-1.7-2.4l-.8-1.1 1.2-.3c.7-.1 3.8-.5 6.4.2 1.7.4 3.3 1.3 4 2.9l.2.5c5 .5 4.7 4.2 7.5 5.1 6.3 2.1 13.1-2.6 17.5-5.1 3.4-1.9 12.6-8.1 16.5-9.8l-.4-1.3-.4-1.7a13 13 0 0 1-.3-2.9c0-3 .9-4.2 2.1-6.5-.4-.6-2.7.3-4.9 1a6.2 6.2 0 0 0-3.1 2.4c-1.6 2.8-1.2-4.4-1-5.5.3-1.7.9-3.8 1.3-4.8-.9-.2-3.4-.5-4.5-1.3a54.4 54.4 0 0 1-4.1-4.2c-2.5-2.9-1.7-2.7-5.7 0-2.2 1.4-1.7-.6-1.2-3.4s1.3-5.3 3.2-6.9c-1.2-.1-4.9-2.4-5.4-3.6-.6-1.8-1-2.8-.2-4.8.9.4 1.8 2.4 3.7 1.8 1.5-.6 1.2-2.7 1.1-3.7-.2-1.6-2.4-3.4-3.7-5.1-.9 1-1.6 2.4-2.5 3.1-.9.6-2.5 1.1-4.2 1a5 5 0 0 1-2.7-1.6H204c-2.8-.4-5.6-2.1-6-2.4l-1.4-1.1 1.8-.4a8.4 8.4 0 0 0 4.4-2.6c-.4-3.9-.3-7 3.8-9-1.4-.9-2.5-1.3-3.2-2.1-.6-.7-1.2-1.3-1.4-2a6 6 0 0 1-1.5.9c-2.7.8-7.2 0-8.8-1.8-2.1-2.3-3.1-4.1-2.5-7.8l-.3-.1-4.1-2.7-.7-.5.5-.7c.6-1 2.3-2.2 3-2.6.8-.4 1.6-.7 2.5-.9.3-.4 1.1-1.3 2.7-2.4 1.4-1 2.9-1 2.9-1 0-1.9-.1-3.9.1-5.8a8 8 0 0 1 4.1-5.7c-.5-2.3-2-4.3-2.7-5.1l-.8-1 1.2-.4c1-.3 2.2-.2 2.7-.2 2 .2 4.8 1.7 6.1 3l1.2 1.4c1.4-.1 3.7-.6 6.6 2.8a11 11 0 0 1 1.5 2.6c4-2.5 6.9-.5 7.6.1l1.3-1c.6-.5 1.1-.9 1.4-1.4.6-1.2 1-1.6 1.2-2.3l.3-1.2 1 .7c.9.6 1.4 1.8 1.6 3.4.2 1.9-.3 4.4-1.2 6.3.5.6 1.2 1.3 1.5 1.9.5.8.7 2.1.7 3.2a10 10 0 0 1-.5 2.7 9.4 9.4 0 0 1-1.5 3.2c-1.4 2.1-.9 3.6-.2 5.3.7 1.7 4.4 7.1 6.5 9.5 2.5 2.8 7.4 7 9.9 9.6 2.1 2.1 6.7 6.1 8.9 8.3 2.4 2.5 4.3 5.7 6.5 8.2a9.9 9.9 0 0 1 5.8-3.1c3-.6-1.4 2.7.5 4.6 2.6 2.7 6.4-.9 8.2-2.9l3.3-3.3.2-.9c.1-.6-.5-.4-.7-.7-.1-.1.1-.6-.8-.6-1 0-2.1 0-3.4.4-.8.3-1.5.7-2.3.7-.4 0-2.9 0-2.9-.5 2.6-3.2 3.5-7.1 6.2-10.4-.8-.2-1.4-.3-2.5 0-2.4.7-4.3.7-5.8.8-2.9 0-5.4-.1-8.5-1-3.8-1.2-7.6-3.1-6.9-10.9.2-2.8 3.5-5.9 5.9-6.9.3.8-.5 2-.8 3.3-.3 1.5.3 3.7 2 5.1 3.1 2.6 5 3 10.6 3.2h6.6c-1.2-.9-2.6-2.6-3-3.2-.4-.8-.3-1-.3-1.6l-.6.1c-3.3.5-7-1.7-7-4.9 0-.2.1-2.1-.1-2.2a2.7 2.7 0 0 1-1.6-2.4c0-2.1 1-1.8 2.2-2.8 2.4-1.3 4.5-3.3 6.9-3.8 1.8-.5 2.3-1.2 3.2-2.7 1-1.7 2.3-2.6 3.2-3 .6-.4 1.2-.6 1.8-.8-.1-1.8-.4-3.7-.6-5.3-.1-1.9-.5-5-1.1-7.3-1.2-4-5.4-9.2-3.5-9.7 3.3-.8 5.7.9 7.7 3.6.9 0 3.3-.1 4.3 1.9 1-1.9 2.5-2.7 4.3-2.8l.8-1.7c1.1-1.8 2.9-4.6 5.3-4.6zm-36.1 216.6c-.5-1.2-2.4.2-2 2 .1.6.9 2.6.5 3.3-.3.8-2.3 1.2-2.9.6-.7-.7-1.3-.7-2.5-.7-1.1 0-1.9.1-2.7.6-.1.1-1.4 1.1-1 1.5.3.3 3.1-1 4.3-.5.2.1 1 .7 1.4.7 2 .7 5.1-.1 5.1-2.8 0-.9-.2-2-.4-2.7-.1-.2-.3-.7-.3-1.1 0-.1.6-.4.5-.9zM212 326.7c1.2.5 2.9 1.5 4.1 2.7 1 1 1.8 2.1 1.7 3.4 0 .8-.4 1.7-1.4 2.6v.1c-.8.8-1.9.7-2.8.1-.9-.6-1.6-1.6-1.5-2.5.2-2.7.1-3.3.1-4.5l-.2-1.9zm147.1-26.4c0-.3 1.4.2 2.8.3 2.2.2 5.9.6 7.4.6 4.9 0 10-.1 14.9-.4 1.8-.1 3.8-.5 5.3-.8 3.1-.7-2.4 6-4 7.5a8 8 0 0 1-3.7 1.8c-3.9.6-9.4.2-12 .3-4.4.2-10.8-6-10.7-9.3zm30.8-2c-4.9.2-9.5 1.2-14.7 1-4-.1-9.2-.3-13.1-.7l-3.6-.4c-1.8-.3-4.9-2.3-6-3.8-1.2-1.4-2.5-2.9-3-4.7l2.2.5c1.3.4 3.6 2.4 3.8 2.4.3-.1.5-.9.5-1.1-.1-.7-1.9-1.9-2.5-2.3-1.2-.8-3.9-1.3-5.8-2.2-1.5-.8-2.2-2.4-3.2-4.3a15.8 15.8 0 0 1-1.6-6l3.5 1.4a9 9 0 0 1 2.6 1.3c1.1.9 2 1.9 2.1 2 .4 0 .6-.6.6-.8 0-.8-1.9-3-3.1-3.5-1.9-.9-4.1-1.5-5.9-2.8-1-.7-1.7-1.1-2.2-1.7-.5-.7-.9-1.5-1.5-3.4-.4-1.6-.5-2.6-.5-4l.1-2.1c2.3 1.4 5.2 2.7 6.9 3.7a16 16 0 0 1 2.2 2.3c.2.2 1.4 0 .1-2.3-1.7-2.8-7.5-4.1-9.6-6.7-.8-.9-2.4-2.9-2.6-4.3-.2-1.2-.1-3.2.3-4.5l1 .7c.7.4 2.7 1.3 4.5 2.4l2.9 1.9c.3.2.8-.2.8-.4.3-.8-1.8-2.4-4.2-3.7a15.7 15.7 0 0 1-4.9-3.2c-1.9-2.4-3-6.7-1.5-9.8.7.7 1.6 1.3 2.6 1.9 1 .7 2.6 1.4 3.9 2l3.3 2c2.1-.6-1.4-2.6-4.4-4.5-1.6-1-3-1.3-3.8-2.1a11.8 11.8 0 0 1-2.7-6.3c-.1-1.4-.1-3.2.2-4.6 0-.2.1-.7.3-1 .2.2 1.4 1.5 2.9 2.3 2 1.1 6.1 2.5 7.6 4.4l2.3 2.8c.3.3.6.1 1-.7.1-.3-.1-.8-.4-1.3-.1-1.6.6-4 1.6-6.9a80.4 80.4 0 0 1 7.1-15.5c2-3.4 4.3-6.6 5.9-9a178 178 0 0 1 11.8-13.7c3.7-3 7.6-8 10.3-11.8.8-1.1 2.8-6 2.9-7.3.2-1.7.1-3 0-4.5-.4-2.8-1.2-4.7-3.9-6.1-1.7-1-3.5-1-4.2-1.3.3-1.1 2.4-2.7 3.8-3.1 1.1-.4 4.4-.8 6 .6 2.9 2.3 2.5 3.2 2.6 7.8.1 1 .5 1.2.7.9.6-.4 1.1-5.5 1.2-5.9 1.8-8 8.4-13.4 9.7-19.9a15 15 0 0 1 1.4 7.9c-.1 3.5-1.4 5.9-3.1 9-.4.7-3.1 4.6-4 6.4-.3.6.1.9.6.8 1.2-.9 6.1-8.2 6.8-9.4.4-.5.8-1.9 1.2-3.4 2 1.6 2.2 9.6.8 12-1.7 3.1-2.3 4.4-5 7.4-.7.9-4.3 4.8-3.8 5.4.2.1.3.4.5.3.7-.2 1.8-1.5 2.4-2 1.5-1.3 3.9-3.9 5.6-6.7l.9-1.5c1.9 10.7-5.5 14.2-11 17.9-1.3.9-.6 1.7 0 1.3l1.2-.3 3.6-2.1c1.8-1.1 3.1-2.2 4.1-3.3.6 5.2-4.5 8.3-5.9 9.8-2.6-1.5-5.7-1.5-7.9.6 3.6-.2 4.5-.1 5.7.3 2.6 1 4.2 2.9 4.3 5.8.2 1.9-1.9 5.6-3.4 6.5.7-4.3-3.7-8-8-8-5.5 0-7.2.9-11.3 3.7a65.7 65.7 0 0 0-23.7 41.4c-.4 3.7-.9 10.1.2 15.7.4 2.1.7 3.1 1.4 4.8l4.5 12.1c.5 1.2 4 9 5.1 12-.5 2.9-.6 6.7 1.8 9.4 2.5.3.6-2.9.5-4.2a14 14 0 0 1 0-5.4c1.3-5.7 4.9-11.5 5.2-17.8.1-.1.1-.3.5.1 2.5 3 5.3 7.3 5.6 13.5.1 2.8-.1 5.6-.6 8.3-.2 1.9-.8 4.5-.9 5.5-.1.5.8.6 1.5.3.6-1.4 1.1-3.2 1.3-5l2.3-7c1.1-3.5 1.9-7.5 2.5-11.2.5-2.8 1.4-7.4 2.1-12 .6-4.7.8-9.3.9-12.4.6-14.3-6.5-35.4-14.4-40.7 2.6-2.6 5.3-5.1 6.9-6.3l.3-.3a69 69 0 0 1 11.2 16.2c1.5 3.4 4.4 7.9 5.3 11.8.4 1.6.8 2.7.9 5.1l.1 3.3.1.8c.1.4.3.3.7-.3l3.3-2.6c3.2-2.4 6.1-3.9 8.8-6.2.7-.5 1.5-2.1 2.1-2.4h.4c.2.1.2.7.2 1.9a18.4 18.4 0 0 1-3.9 10.4c-4 3.9-9.8 6.9-9.8 7.9 0 .4-.3 1 .5.6.7-.3 1.8-1.3 2.6-1.8 1.2-.9 6.5-4.5 7.4-5.6 1.3-1.3 2.1-2.3 2.7-3.4 1.3 1.7.7 6 .3 7.3-.7 2.3-2.3 5-3.7 7.5-1.9 3.3-10.4 5.8-12.3 9.3 0 0 .5.4.7.3 4.1-3.2 11.4-5.5 14.1-10.4l.3-.5c.7 2-.4 5.9-.7 6.6-.8 2.1-2 3.8-3.6 5.5-1.9 1.9-2 2.1-5.1 4.1a21.9 21.9 0 0 0-5.3 4.1c-.4 1-.2 1.2.4.9l1.8-1.4c1.3-.9 4.3-2.5 7.4-4.7l1.8-1.6a16 16 0 0 1-3 10.6 20.5 20.5 0 0 1-6.1 4.9c-1.7 1-3.2 1.6-4 2.4l-1.7 1.6c-1 1.4-.2 1.9 1.8 0a18 18 0 0 1 4.2-2.5c1.5-.6 3-1.4 4.3-2.3-.1 4.2-1.9 6.4-4.2 8.6-3 2.9-7.3 2.9-10.6 6.4-.4.5.1.9.6.7 1.5-.5 4.3-2 4.8-2.2l3.6-1.7c-.3 2.1-1.8 4.6-3.1 6.2-.9 1-5 4.2-6.9 5.3zm-195.4-5.2c-.5-.9-1-2.2-1.3-3.6-.2-1.2-.1-2.5.6-3.5.5-.7 1.3-1.2 2.4-1.5.9-.2 1.6.2 2 .9.5.8.6 1.8.3 2.6a4 4 0 0 1-1.2 1.6c-.6.6-1.2 1.1-1.6 1.7l-1.2 1.8zm30.6-6.3v-.2c0-1.3 0-2.7-.4-3.9-.2-.6-.2-1-.2-1.6 0-.5-.1-.9.2-1.3l.5-.6.4-.4c.5-.1 1-.2 1.5.1 2.6 1.2 1.9 4 .7 5.8-.9 1.5-1.8 1.9-2.7 2.1zm147.7-81a61.3 61.3 0 0 0-15 27.7 60.1 60.1 0 0 0-.8 17.3c.6 4.9 2.7 11.4 10 28.1l.1-.2c1.4-4.8 4.6-9.7 4.7-14 .1-5 .5-4.8 3.8-1.2a27.6 27.6 0 0 1 5.8 16c1.3-3.4 2.3-11 2.8-13.8 1.1-6.8 2.5-12.9 2.3-21.5-.2-14.1-4.3-30-13.7-38.4zm-196.5 70.6.2-1.1h.1c.5-1.6 2.6-4.2 4-4.9 1.5-.9 3.2-1.1 4.4-.4.8.5 1.3 1.4 1.6 2.7.1.6-.2 1.1-.6 1.5-.7.8-1.9 1.2-2.9 1.1-2.5-.1-5.1.4-6.8 1.1zm144-81.1c-.9.5-1.8.8-2.5.9-2.2.5-5.3-.7-6.4-1.2.3 1.3.5 1.8.5 3.3 0 1.4-.6 3.4-1.1 4.9-.5 1.7-1.3 3.1-2 4.3l-3.8 5.2-3.1 6.3c-.8 1.8-.9 2-2.4 3.2l.4 1.3 1.4 2.7c.9 1.3 2.9 2 4.9 1.8.8-.1 1.1.2.7.8-1 1.5-2 2.9-3.7 3.9a12 12 0 0 1-7.4 1l-1.3 4.5c0 3.2.6 8.1 1.8 11.4 1.4 3.7 3.6 6 5.6 8.5-.3-3.8 2.5-10.2 3.3-13.6.8-3.1.5-5.8 1.2-8.8.8-3 .6-3.8 1.6-3.3.2 1.7-.4 4.3-.4 6.8 0 7.1 11.7 13.4 15.1 13-1.7-.4-5.7-8.9-6.1-12.3-.2-2-1-4.5-1.4-6.8-.5-3.3-2.9-8.1-4.3-11.2-1-2.5-4.5-6.1-2.3-6.1a43 43 0 0 1 10.4 22.9c.8-.5 1.7-3.6 2-4.2a28 28 0 0 0 1.5-6.2c.3-2.3.4-5.7.1-8.3-.2-1.3-.8-2.8-1.3-4l-1.3-2.2a30.7 30.7 0 0 0-4.1-5.4l-2.6-2.7c-.3-.3-2.2-2.4-.9-2.7.7 0 2.3 1.6 2.8 2.1 1 .8 1.9 1.3 2.8 2.2a10 10 0 0 1 1.4 1.6c1.9 2.4 4.2 5.9 6.3 7.9 1.3 1.3 6.7 3.6 8.6 3.1 0-.4-1.5-2.4-1.8-3-.3-.6-1.1-2.1-1.6-3.6-.7-2-1.7-4.4-2.3-6.6l-1.1-3.2c-.4-1.4-1.1-2.4-1.9-3.5a20 20 0 0 0-5.3-4.7zm-131 54.5a15 15 0 0 1 4.1.3c1.2.4 2.3.9 2.9 2a4 4 0 0 1 0 2.9c-.2.9-.9 1.3-1.7 1.3a4 4 0 0 1-2.5-1.3c-.9-1.2-1.2-2.5-1.9-3.7l-.9-1.5zm92.4-96.2h33.2l.2.1c-1.2.9-2.3 1.8-3 2.8-.4-.3-1.4-1.7-1.6-1.7l-.6.3c-.3.2.9 1.3 1.2 2.1.5.8 1.1 2 1.9 1.2.7-.6 1.6-1.8 2.9-2.9.6-.5 1.6-1 2.5-1.4.8-.3 1.5-.6 2.5-.8 3.9-.9 1.9 1.4 2.8 3.3 1.7 3.8.4 7.9-1 10.1-1.4 2-5.1 3.1-5.9 3-1.7-.3-1.5.2-2.2-.9l-1.2-1.5c-.6-.7-1-.4-1.2.3-.2.6 1.2 2 1.7 2.9l1.1 1.9.7 1.5a19 19 0 0 1 0 13.3c0 .1-.2.4-.3.3-.5-2-1.7-4.6-2.1-5.8-.3-1-1.1-2.3-2-3.4-.8-1.1-1.9-2-2.8-2.3-.1.1-.2.4-.1.7.4.7 1.2 1.3 1.6 2l1.9 3.6c.7 1.4 1.9 6.6 2.9 7.8.3.4 1.8 2 2.3 2.2.8.5 2.4 1.1 3.8 1-2.3 1.6-7.7.9-9.1 0-2.1-1.3-4.9-4.2-5-5.3-2.1-.2.8 4.3 1.5 5.1.8 1 1.8 1.9 2.1 3.2.2.8.3 1.3.1 3-1.4 5-1.9 5.2-3.1 7.5a13 13 0 0 1-1.5 2.3l-.2.1-.2-3.2c0-1.6-.9-5-1.9-6.7-.4-.9-1.2-1.8-1.9-2.6-.4-.7-2.3-1.6-2.3-1.9-.9 0 .8 2.2 1.8 4.3.4.9 1 1.5 1.5 3 .3 1 .9 2.1 1.2 4.6v2.2c-.1 2.3-.7 3.2-1.9 5.4l-2.9 5.4c-.3.1-1.1-2.8-1.3-3.3-.8-2.1-1.6-4.3-3-5.7-1-.9-2-2.4-2.8-3.5l-.9-1.5-.2-1.1c-2.7.8 3.1 8.3 4 9.8.3.4 1 1.7 1.4 3.3 1.1 4 1.1 4.3 3.6 9.2.3.6 1.3 1.4 3.2 2.2 1.2.5 2.2.3.1 1.8-1.3 1-4.6 1.5-6 1.3-1-.2-3-.1-5-1.7-2.6-1.8-4.3-5.1-6.3-7.3-1.1-1.4-4-5.1-5.7-5.1-1.6 0 2.2 3.2 2.5 3.6 2.5 2.7 4.9 9.6 9.8 11l1.1.4c.2.2 0 .7-.4 1.7-.9 2.1-.9 3.6-2.9 7.1-.6 1-1.8 2.3-2.6 3-1.5 1.2-3.3 3-5.1 3.8-.5.3-1.4.6-2 .6-1.3 0-.2-.2.2-1.4 1.5-4.7 1-3.4 1.8-5.3.4-.9 3-5.9 1.8-6.5-3.7 3.4-3.7 8.6-6 11.4a42.3 42.3 0 0 1-7.6 6.6c-1.8.4-.9-.2-.1-1.9 1.2-2.8 1.6-8.7 2-12.2 1-7.7 5.2-9.1 5.2-12.5-1.4-.7-6.3 7.1-7.6 8.3-.4.2-2.9 2.3-5 3.2-.8.3-4.9 1.4-6.4 1.5-.7 0-6-.4-4.7-.6 3.1-1.4 5.2-3.3 7.5-5.7 1.7-1.7 3.5-3.4 5.4-4.9l.6-.7c.1-.2.1-1.2-.1-1.2-2.8 1.6-5.9 4.4-9.2 7a19.6 19.6 0 0 1-6.4 3.9c-1.8.7-3.4 1.6-5.1 1.8-1.1-.1.4-1.2.7-1.5.8-.9 1.6-2.1 2.3-3.3l1.2-2 1.1-1.7c1.6-2.3 3.6-5.6 5.9-8.7 1.5-1.9 3.9-4.3 5.8-5.6 3.5.2 5.5-.8 7.2-1.6.6-.3 4.4-3.8 3.8-3.7-2.4.3-4.8 2.8-7.1 3.2-1.1.2-3.3.5-4.4.1-.8-.2-1.5-.9-2.2-1.6-1.8-1.9-.7-6.3.5-8.4.5-.8 2.5-2.8 2.7-2.7-.3 2.7 1.3 4.4 3.3 4.7 2.1.4 4.1-.2 6.2-1.7 2.2-1.5 2.8-1.8 4.2-3.4 2.2-2.5 4-4.4 5.4-5.5l1.2-.4c.2 2.1 4.4 6.5 6 5 .8-.7 0-1.9-.5-2.3-.5-.6-.1-3.6.5-3.9 3.1 0 5.2-2.1 5.4-5.1l1.7 2.1c.6.7 1.9 1 2.8 1.3 1.9.6 3.9.2 4.7-1.5-.5-.1-1.4-.5-2-1.1-.8-.8-1.3-1.4-1.5-3.3-.2-1.7-.4-3.4-.1-3.9.8-1.2.6-2.3.6-3.1.1-2.1-1-3.1-1.5-3.8 1.6-.1 2.7-1.6 3.3-2.2 1.2-1.4.7-5-.1-4.1-1.8 2.1-2.2 1.4-3.7.2-2.7-2.1-4.2-2.8-9.4-2.8l-.3.3c-.1 1.5 4.1 1.4 6.2 3 2 1.4 3.4 2.1 6.3 2.3-.4 1.5-3.4 2.6-5.1 1.2-2.2-1.8-4.3-1.4-5.7-.5l.3.1c1.4.4 5.2 2.1 6.3 3.1.6.5 1 1.4 1.5 1.9.4.4.6 2.7.1 2.3l-1-1.1a8 8 0 0 0-2.5-1.8c-.9-.3-3.2-.7-3.4.5 1.7.3 2.8.8 4 1.9.7.5 1 .8 1.7 1.6.6.7.7 1.8.8 3 0 1.1-.1 2.3.1 3 .2.8.9 2.9 1.1 3.1-3.3 0-6.1-8-8.8-6.6l1.8 3.5c.4 1.3.4 3.1-.5 4-.4.4-1.7 1.1-2.4.8 0-1.6 1.1-4 .5-4.6-.2-.2-1.2-.7-1.2.2-.1 2.9-.7 4.1-1.7 6-.3.5-.2 3.5-.6 3.6-1.4.5-2.3-3.1-2.3-4.4 0-.6.9-2.9-.1-3.2-.7.3-1.1 1.8-1.6 2.5-.5.5-1.9 1.2-2.5 1.5-3.5 1.9.5-2.3.8-3.1.2-.3.7-1.3-.3-1l-1.5 1.4c-.3.4-1.3 1.5-1.7 1.7-.6.4-2.8 1.3-1.5-.7.1-.2 1.3-2 .4-2l-1 .8-1.2 1.1c-.5.6-3.1 2-3.7 2l.4-1.1c.8-1.8 1.3-4.2 2.6-5.8 1.7-1.9 2.3-1.6 5.1-1.6l4.8.1c1 0 2.7-1.2 3.2-2.8.3-.9.3-1.9.3-2.7 0-1.2-.3-1.5-.5-1.6-1.3-.9-.4-4.4-1.5-6-.2-.4-.9-1.4-1.9-2a9 9 0 0 0-2.7-1c-1.5-.4-3.1 0-4.6.6a19 19 0 0 1-8.2 1.8c-1.9-.3-2.3-1.4-2.9-3.4-.5-1.5.9-1.7 1.8-2.8.9-1.1-1.1-.4-1.8-.1-.7.3-.8.2-1.2-.1-1.1-.9.8-1.8 1.7-2.7.4-.4 2-1.4 3.7-2.2 1.3-.7 2.3-.9 3-1.3a14 14 0 0 0 2-1.4c.7-.7 1.7-2.3 2-2.7 1-1.1 3.1-2.1 4.2-2.8zm-73.1-10.8c.3.8.4 1.6.3 2.4-.2 1.2-1 2.3-3 3.1v.1a4 4 0 0 1-3.8-.6 4.4 4.4 0 0 1-1.8-2.3 6.7 6.7 0 0 0-2.8 3.8l-.1 2.9.4 2.3h.1c2.7-.2 5.4.8 7.4 3.3 1.9 2.3 1.2 2.2 6.5 6.5.9.8 2.6 1.7 4.1 2.6 1.4 1 2.7 1.9 2.9 2.2.2 1.2-.3 1.1-1 .9-.8-.2-1.9-1.1-2.8-1.5-1.4-.7-5.5-3.2-6.3-3.8-2.5-2-4.5-5.2-7.1-7.1-2.4-1.9-6.9-.9-8.4.8l1.2.5c1 .5 1.7 1 2.1 1.6.4.6.7 1.5.6 2.7 0 2-1.1 2.9-2.7 3.5-1.5.6-2.4.5-3.4.1-.1 1 .2 2.4.4 2.7 1.5 3.5 4.7 4.7 8.3 4.2 2.9-.4 1.7-3.3 3.5-2.5.6.2.5.9.1 1.6l.1.3.4.8.4.6.5.6.8.7.9.7.9.7 1.2.7v.1c.7-.1 1.3.2 2.2.5 0 1.4-1.2.7-2.3 1.1-.9.3-.8.3-1.7 1.2-1.1 1.1-1.5 1.6-1.8 2.6-.1.3-.4.8-.1 2.6l.3-.1c.8-.2 1.6-.3 2.4-.1.9.2 1.8.5 2.3 1.1.5.7.9 1.3.8 2.3a5.7 5.7 0 0 1-1.6 3.9l-.4.3c.8.7 1.8.9 2.6.6a8 8 0 0 0 4-3.9l-.1-.5c-.3-.8.4-1.8.9-1.2.9.8 1.5 2.2 2.7 3.7 1.9 2.2 3.3 2.7 3 6.3-.1 1-.6 2.2-1.4 3-1.1 1.2-3.2.7-3.2.7.1.8.4 1.1.9 1.6 1 .9 1.6 1.3 2.8 1.7 1.2.5 2.6.4 3.8.4 1.3 0 2.5-1.4 3.5-.9-.3 1.1-1.3 1.4-2.5 1.8-1.3.4-1.1.2-2.4.9-2.9 1.6-3.9 4.1-4.3 6.8.4-.5 1.1-.7 1.4-.8.5-.2.9-.3 1.5-.3l2.5-.1a16 16 0 0 0 5-2.2c.6-.4 3-1.2 3 0-1 .1-1.6.6-2.2 1.2-1.3 1.1-1.2.9-1.7 1.2l-1.5.9c-.7.4-1.5.6-2.3.9.4 1.5 3 1.5 6.6 1.3 2.2-.2 4.3-1.2 4.6-.5-1.7 1.7-6.1 2.5-7.8 2.6l1.1 1.2c.3.3.7.6 1.3.8 1.2.4 2 .4 3.3.4 2.4 0 6.3-1 6.1.3-3.5.3-4.9.5-5.9 3.2a17 17 0 0 0-.9 6.1c1.5-1.5 4.4-2 8.5-3.2 1.5-.3 4.3-1.4 5.7-.6-2.7 1.5-4 2.1-6.1 5.3-1.1 1.6-1.3 4-1.1 6.3.1 1 .4 1.9.7 2.8 1.5-.9 3.3-2.2 4.1-3 1.1-1.1 3-4 3.7-5.4l2.6-4.3a58 58 0 0 1 9.6-11.7c-2.7-.9-3.9-6.5-1.8-11.1a8.7 8.7 0 0 0-1-3.1c-.8-1.5-2-2.8-3.2-4.1-3.7-4.3-8.2-8-12.1-12a157 157 0 0 1-10.8-10.8c-2.5-3-5.7-6.9-5.9-10.5-.1-2 1.1-3.4 2-4.7q0-.2.2-.3c.4-.6.8-1.2.9-1.8.4-2 0-4.8-1.6-4.9-1.2 1-2.6 1.4-4 .5h-.1c-1.2-.7-1.9-1.6-2.1-2.6-.4-1.3.1-2.7 1.1-3.8a5 5 0 0 0-6.1.7l.4 1.6c.3 4 3 9.7 5.3 12.3l.8 1.3c.2.6.2 1-.7 1-1.1 0-2.5-2.3-4.1-4.8a17.6 17.6 0 0 1-2.9-6.6c-.4-2.4-.8-5-1.8-6.8a8.2 8.2 0 0 0-4.6-3.5zm111.6 28.6q-1.5.4-3.6.5c.5 1.5 2 4.4 1.8 7.8-.3 3.9-.5 5.9-1.4 7.8-1 1.9-.9 1.7.9 3.4.7.7.9.6 1.8.9.4.2 1.7.1 3 .1.3 0 .5 0 .4.3-.2.7-.4 1.3-.8 1.7l-.5.4c1.5.4 3 2.1 4 3 1.3 1.3 3.3 4 3.2 4.8h.1c.2-2.5.1-6.1-1.2-8.2-.8-1.8-3.5-4.7-4.6-5.9l-2.6-2.3c-.5-.5-1.7-1.3-.2-1.7 1.8 0 8.5 6.7 8.8 7.8l.2-2.3a9.4 9.4 0 0 0-1-4.3c-.7-1.6-4-4.1-4.8-4.7l-2.2-1.7c-.8-.6-1-1.1-.2-1.4 1.6.2 2.9 1.2 4.2 2 1.7 1 1.9 2.2 4.3.6 1.5-1 3.6-4.4 3.2-7-.6.8-2.3 1.3-3.1 1.4-.8.1-2.4.3-3.9-.1-2.4-.6-4.1-1.5-5.8-2.9zm36-7.7.5 4.1c.1.4-1.1 1.5-1.3-.4-.2-1.4-.6-4.8-1-6.5-.7-2.8-1-3.7-2.1-6.4-2.6-5.8-2.2-9.7-2.3-15.7a15.7 15.7 0 0 0-3 5.9c-.8 3.2-.4 9 .1 11.9.3 1.6 1.9 5.1 2.6 7.1l.5 1.2c0 .5-.3.7-.6.7-1.2-.7-3.7-6-4-7.5-.7-3.5-1.3-6-1-9.4-1.6 2.3-2.6 4-2.9 6.5q-.2 2.2 0 4.3c.2 1.1 1.7 4.7 2.3 5.6 1.1 1.7 4.7 7.2 5.7 8.3 0 .4-.3.8-.5.7-1.5-.4-5.8-5.8-8-10.9-1.4 2.2-1.8 6.1.3 10 1.8 3.2 5.2 5.2 7.5 6.4 2 1 1.2 2.2.1 1.7a22 22 0 0 1-6.8-4.4c-.9 2.1 0 5 1 6.6 1 1.8 3.3 3.8 5.2 4.5 1.1.4 2.6.5 3.3.8.5.3.3.6 0 .7-.5.2-.8.1-1.3.1q-.8.1-1.6-.1h-2.6a5.2 5.2 0 0 0-3.3 5.1c0 1.6 1.3 5.4 3 5.6-.3-3.9 4-6 7-6.1 3.2 0 7.2 1.4 9.9 3.7 3.3-4.3 6.3-7.6 8.8-10.2a51 51 0 0 1-5.5-8.3c-.6-2.7-2.4-5.7-3-8.6-1.2-4.6 1-12.7 6.9-10.7-1-3.2-6-4.8-8.8-2.9-3 1.9-3.9 3.7-5.1 6.6zm-155.6 27.5.7-.3a8.4 8.4 0 0 0 3.2-2.7c.2-.3.6-.5 1-.7h1.7l.8.2.4.2c.3.4.6.7.5 1.2-.1 1.3-.5 2.2-1.1 2.7-.9.8-2.2.8-3.6.6-1.3-.2-2.6-.7-3.6-1.2zm75.5-10.2h-.6s-16 1-19.5-4.3c-1.1-1.8-1.2-2.7-1.3-5.1-.4.3-2.1 1.7-2.4 3.4-.2 1.4-.4 2.8.3 4.4.5 1.4.7 1.6 1.3 2.3 1.1 1.3 3.2 2.5 4.9 3 3.2 1 6.2.8 9.1.6 2.7-.2 5.3-.6 7.9-1l.3-3.3zm10.4 2.1c-.4 1.1-.8 1.8-2.1 1.8l-1-.1c-.4-.3-.8-.8-1.4-1.1-1.3-.9-.8-.3-2.7-2.2l-.5-.5c5.5-.4 7.2 1.1 7.7 2.1zm-6.3 1.4-2.8.1c-.1-1-.1-2.7.1-2.8.3-.1.6.4.7.5l1.1 1.2.9 1zm6.6-2.5c-1.9-3.3-9.7-2.4-9.7-2.4l.2-3c.1-.7.2-1.6.4-2.1l1-1.8 1.9-.3c4-.2 5.4 3 5 6.8.1.9 1.5 1.1 1.2 2.8zm-10.3-8.5a16 16 0 0 0-.4 2.7c0 .8.2 2.4-.7 1.7l-1.6-1.6c-.4-.5-.4-1-.3-1.6l3-1.2zm-8.1-2.4c-.1.4.2.5.5.5.4 0 .8-.1.9-.4.4-.8-1.3-.8-1.4-.1zm4.4-1.1c-.3 0-.7.3-.7.5 0 .5.5.7.9.5.7-.3.4-1-.2-1zm-2.9-1.8q0 .5.6.6c.3.1.9 0 .7-.6-.3-.5-1.3-.8-1.3 0zm51.6-4.4h-.2c-.5.6-1.6 1.9-2.5.9-.4-.6-.5-1.1-.5-2.5-.1-1.3-.1-3.4.8-4.2.5-.6 1.4-1.1 1.8-.2l.4 1.9c1.1 0 .8-4.6-1.1-4.2a4 4 0 0 0-2.2 1.2c-1.6 1.6-.8 5.4-1.1 7.8-.4 4.1 4.6 2.6 4.6-.7zm-135-1.7c.6-.6 1.5-1.1 1.9-1.4 1.6-.8 3.3-1.3 5.3-.3.6.3 1.1.6 1.4 1.1.3.4.4.9.3 1.6 0 1.2-.7 1.7-1.6 2-1.8.7-2.6 0-4.1-.9l-3.2-2.1zm95.4-1.3-2.1 1.3c-1.1.6-.8-1.1-.5-1.3l2.7-1.8c.9-.8 2.1-2.1 2.7-3 1.1-.2 2.3 1.3 3.5 1.7 1.2.4 2.3.8 3.8 1.1.8.1 1.8.3 3.5.1l3.3-.3c1.2 2-5.2 1.8-6.4 1.9h-.4c-1.2 6.6-10.2 6-10.1.3zm8.8-.6c-1.8-.3-4.2-1.2-5.2-2.4l-.4-.4s-1.1 1.5-2 2.3v1.4c.1.6.3 1.1.7 1.5a6 6 0 0 0 4.2.9c1-.3 1.6-.5 2.2-1.1a4 4 0 0 0 .5-2.2zm-1.1.8-.1-.3c.1.3-2.8 1.4-3 .2l.2-.8c.5-.6-1.1-1.7-1.8-.6-.9 1.2.2 3.1 1.7 3.1.8 0 3-.8 3-1.6zm-61.4-17.3.2 1.2c.1 1.8-.3 4-1.1 5.7-.7 1.5-1.8 2.7-3.1 2q-1.2-.7-1.4-1.6c-.2-.9.2-1.8 1-2.5l1.9-1.6c.7-.6 1.3-1.2 1.7-1.9l.8-1.3zm85.9 8h-31.9l-1-4.7c-.6-2.9-.8-3.5-1.2-6.1-.4-2-.7-2.7-.8-2.8a18 18 0 0 0-1-2.7c-.3-.7-.4-.9-1-1.5-.3-.3-1.2-1.9-.5-2 .7-.1 1-.2 2.2.5 1.9 1.1 1.8 3.1 3.4 3.2 1.3 0 3.4.1 3.6 1.5.8 3.9-1.2 3.2-2.9 5.2-.7.8-2 2.2.1 1.8 2.4-.4 3.2-2.5 4.3-2.7.6.3.9 1.2 1.7 1.7a5 5 0 0 0 2.8.8c.5 0 .9-.7.5-1-.8-.5-1.9-.8-2.9-1.9-.9-1-.9-.9-.9-2.8 0-2.8 1.5-3.6 3-3.3.8 0 1.1-.7 1.2-.8.6-.9.9-2.1 1.6-3.1 1-1.2 2.3-2.4 3.3-2.4 1.5 0 2.6 1.7 3.1 2.8.2.4.5 1.1.5 1.7.1.6.2.9.8 1.5.3.3 1.3.3 1.7.4.9.2 2.1 1 2.3 1.7.4 1.6 0 2.3-.2 2.9-.6 1.3-1.2 1.8-2 2.1-.8.3-1.5.3-2.2 1-.6.7.3 1.1 1.5.8.9-.3 2.5-1.1 3.6-1.7.8.8 1.8 1.5 2.3 1.7.6.4 2 1.1 3 .8.1 0 .5-1.1.1-1.2a4 4 0 0 1-2.5-1.3c-.3-.3-.9-1-1-1.8-.1-1.9.1-2.1 1.5-3.5 1.1-.9 1.7-.7 2.8-.1 1 .5 1.3-1.1 1.9-1.8.8-1 4.4-4 4.5-2.6a62 62 0 0 0-5.3 19.7zm-114.7-13.3h.8c1.7.2 3.9 1.4 5 2.5.7.7 1.3 1.4 1.6 2.2.4.6.5 1.2.4 1.8-.1.8-.7 1.4-1.9 1.9-.8.3-1.6 0-2.2-.4-.7-.4-1.2-1-1.2-1.6-.2-2.5-1.5-4.9-2.5-6.4z" class="a"/><path fill-rule="evenodd" d="M202.6 438a322.8 322.8 0 0 1-110.9-58.9 3.5 3.5 0 0 1-1.4-2.8V336l-32.4-20q-.6-.4-1-.9s-22.4-30.4-37.4-77C5.5 194.3.3 141.6.3 141.6c-.1-1.3.5-2.6 1.6-3.4a4 4 0 0 1 3.8-.2l78.6 41.8a272.4 272.4 0 0 1 28.3-49.1l-21-18.7-.3-.2-.2-.3-.3-.4-.2-.5-.2-.5-.1-.5v-.6l.1-.3.1-.4.1-.3.2-.5.2-.4a250.4 250.4 0 0 1 410 .1c1.1 1.5.8 3.6-.6 4.8l-21 18.7c13.5 18.1 23.8 39 28.4 49.1l78.6-41.8c1.1-.6 2.6-.5 3.7.2 1.1.8 1.8 2.1 1.6 3.4 0 0-5.2 52.7-19.2 96.5a289.8 289.8 0 0 1-37.4 77q-.4.5-1 .9l-32.4 20v40.3c0 1.1-.5 2.1-1.4 2.8A321.9 321.9 0 0 1 389.4 438a309.1 309.1 0 0 1-92.1 60.4 3 3 0 0 1-2.6 0s-48.5-18.6-92.1-60.4zm-47.3-123.1v-31.2a494.6 494.6 0 0 0-51.3-.8c16 12.2 33.1 23 51.3 32zm332.8-32c-10.9-.4-29.7-.7-51.4.8v31.2c18.2-9 35.4-19.8 51.4-32zm-366.5-7.6a50.2 50.2 0 0 1-22.8-31.5l-77.9-27.6a303.6 303.6 0 0 0 20 56.1l49.4 8.8v-1.3q0-.7.3-1.4l.2-.4.4-.6.4-.4.6-.4.6-.3.5-.1.3-.1h.2c.5 0 11.3-.8 27.8-.8zm380.1 5.8 49.4-8.8a303.6 303.6 0 0 0 20-56.1l-77.9 27.6a50.2 50.2 0 0 1-22.8 31.5c16.5 0 27.3.8 27.9.8h.3l.6.2.6.3h.1c1.1.7 1.8 1.9 1.8 3.2zm-66.9-4.7c9.9-.7 19.2-1 27.4-1.2a46.3 46.3 0 0 0 27.7-33.3 2 2 0 0 1 1.2-1.3l81.1-28.8c6.4-26.5 10-52.2 11.4-64.1l-126.2 67.1-22.6 28.6zm-277.6-32.9-22.6-28.6L8.4 147.8c1.4 11.8 5 37.5 11.4 64.1l81.1 28.8c.6.2 1 .7 1.2 1.3a46.5 46.5 0 0 0 27.7 33.3c8.3.1 17.5.5 27.4 1.1zm277.6-11.8 17.3-22q.5-.6 1.2-.9l48-25.5a268 268 0 0 0-27.4-47.7l-38.5 34.2-.6.4zm-277.6-61.5-.6-.4-38.5-34.2a268 268 0 0 0-27.4 47.7l48 25.5q.7.3 1.2 1l17.3 21.9zm277.6-9.7 58.3-51.8a243 243 0 0 0-394.2 0l58.3 51.8v-7c0-.3.1-.7.3-1a168.6 168.6 0 0 1 277 0q.3.5.3 1zM189.3 65.7l-4.9 2.8-.6-1.1q-1-1.7-2.5-2.5-1.4-.7-3.3.3-1 .6-1.4 1.3-.4.8-.5 1.6 0 .8.3 1.7l.8 1.7q.5 1 1 1.6.4.7 1 1 .6.4 1.4.5l1.9-.1 4.6-.6q2-.3 3.5-.1 1.4.3 2.6 1.1 1.2.8 2.2 2.2 1 1.3 2.1 3.2 1.2 2.2 1.8 4.2.6 2.1.4 4-.3 1.9-1.4 3.6-1.2 1.6-3.6 3-1.8 1-3.6 1.2-1.9.3-3.6-.2-1.8-.5-3.2-1.6-1.5-1.1-2.5-2.8l-1-1.8 4.9-2.8.8 1.5q.8 1.4 2.2 2 1.4.6 3.3-.4 1.2-.7 1.7-1.5.5-.7.5-1.6 0-.9-.5-1.9l-1.1-2.1-1.3-2.1q-.6-.9-1.2-1.2-.6-.4-1.3-.4l-1.9.1-4.3.6q-3.9.5-6.2-1.1-2.3-1.5-4.1-4.7-1.1-1.9-1.5-3.9-.5-2-.1-3.9.3-1.8 1.4-3.4 1.2-1.7 3.3-2.9 1.8-1 3.7-1.2 1.9-.2 3.6.3 3.5 1.1 5.2 4zm17.1 22-14.8-36.3 5.2-2.1 6.7 16.6.1-.1.9-19.6 5.2-2.1-1.2 17.4 17.3 18.3-5.5 2.2-12.5-13.7-.6 6.4 4.4 10.9zm185.5 4.7L412.4 59l4.8 2.9-20.5 33.4zm9.1 5.2 23.6-31.2 4.5 3.4L418.3 84l.1.1 17.3-9.3 4.5 3.4-15.5 7.9-6.9 24.2-4.8-3.6 5.4-17.7-5.8 2.7-7.1 9.3zm-41.8-61.5-7 29.5q-.4 1.9-1.5 3.3-1 1.5-2.5 2.4-1.6.9-3.3 1.3-1.8.3-3.6-.2-1.8-.4-3.2-1.4-1.5-1.1-2.4-2.6-.9-1.6-1.3-3.3-.3-1.7.2-3.6l6.9-29.6 5.5 1.3-6.9 29q-.4 2.1.3 3.3.7 1.2 2.2 1.5 1.4.3 2.6-.4 1.2-.7 1.7-2.8l6.8-29zm-198.8 70 1.6 1.8q1.2 1.4 1.8 3 .6 1.7.6 3.4-.1 1.8-.8 3.4-.7 1.7-2.1 2.9-1.2 1.1-2.7 1.9-1.5.8-3.2.8-1.7.1-3.5-.6t-3.6-2.7L134 104q-1.3-1.4-1.9-3.1-.6-1.7-.6-3.4.1-1.7.9-3.3.8-1.7 2.3-3 2.9-2.7 6.5-2.4 1.7.1 3.4.9 1.7.9 3.1 2.4l1.4 1.6-4.1 3.8-1.3-1.4q-1.1-1.3-2.6-1.5-1.5-.3-2.7.8-1.5 1.4-1.2 2.8.4 1.4 1.7 2.9l13.5 14.8q1.1 1.3 2.4 1.6 1.4.4 2.8-.9l.7-.9q.4-.6.5-1.3.1-.7-.2-1.4-.3-.8-1.1-1.7l-1.3-1.4zM354.5 76l13.6-36.8 7.7 2.9q2.5.9 4 2.3 1.5 1.5 2.1 3.2.7 1.7.6 3.5-.2 1.9-.8 3.7l-.5 1.3q-.6 1.5-1.2 2.5-.6.9-1.3 1.5-1.5 1.2-3.6 1.5 1.5 1.6 1.7 3.6.3 2-.8 5l-.8 2q-1.7 4.9-5 6.6-3.3 1.7-8.5-.2zm17-29.8-3.8 10.1 2.4.9q2.6.9 4 0 1.4-1 2.4-3.6.9-2.4.3-4-.5-1.7-3.2-2.6zm-5.4 14.7-4.3 11.8 2.2.8q1.6.6 2.7.5 1.1-.1 1.9-.8.7-.6 1.2-1.7.6-1.1 1.1-2.5.5-1.4.7-2.5.2-1 0-1.9-.2-1-1-1.6-.7-.7-2.2-1.2zm8.6 22.5 17.8-34.9 5 2.5-15.2 29.9 9.9 5.1-2.6 5zm-146.3-5.1-2.2-40 4.5-1.3 19 35.3-5.4 1.5-3.8-7.6-7.4 2 .7 8.6zm9.6-17-6.5-12.9-.1.1 1.2 14.4zm182.7 50.8L454 89.8l3.4 3.2-20.6 34.4-4.1-3.9 4.6-7.2-5.5-5.3-7 5zm19.5-.4 7.8-12.2h-.1l-11.8 8.4zm-148-44.8.4-39.2 16.7.2-.1 5.3-11.1-.1-.1 11.5h9.7l-.1 5.3-9.6-.1-.1 11.5 11.1.1-.1 5.6zM134.4 79.1l1.2 9.3-3.9 3.5-9.2-2.1 3.2-2.9 6.3 1.4-.8-6.4zm36.8 32-22.8-31.9 13.6-9.7 3.1 4.3-9.1 6.5 6.7 9.3 7.9-5.6 3.1 4.3-7.9 5.6 6.7 9.4 9-6.5 3.3 4.6zm141.7-43.6 4.6-38.9 8.3 1q2.3.3 4 1.1 1.7.8 2.9 2.5 1.3 1.7 1.6 3.8.3 2.1-.1 5.6-.3 2.6-.8 4.4-.6 1.8-1.7 3.2-1.4 1.8-3.4 2.7-2.1.8-5.2.4l-2.8-.3-1.8 15.2zm9.5-33-1.5 13.2 2.6.3q1.7.2 2.7-.2 1-.3 1.5-1.2.6-.7.8-1.9l.4-2.7.2-2.6q.1-1.2-.2-2.2-.3-1-1.1-1.6-.9-.6-2.5-.8zm-96.3 2.1 2.6-8.8 5.7-1.6-4.8 9.5zM268 68.4l-3.9-38.9 8.9-.9q9.9-1 11 10.4.4 3.5-.5 6-.8 2.5-3.3 4.3l7.8 17.1-5.9.6-6.9-16.1-3.3.3 1.6 16.7zm2.2-34.3 1.3 12.2 3.1-.4q1.5-.1 2.3-.6.9-.5 1.3-1.3t.4-2q.1-1.1-.1-2.6-.1-1.5-.4-2.6-.3-1.1-.9-1.8-1.2-1.5-4.1-1.2zm24.2 417.4c-26.2-.1-51.7-3.4-76.1-9.4a306 306 0 0 0 76.1 48zm3.7 38.6a304.6 304.6 0 0 0 76.1-48c-24.4 6-49.9 9.3-76.1 9.4zM90.6 284.7l-47.5-8.5c9.2 19 17.6 31.1 19.5 33.8l28 17.3zm411.3 0v42.5l27.9-17.3c1.9-2.6 10.3-14.8 19.6-33.7zm-404 2.5v87.1a315.3 315.3 0 0 0 198.3 69.9c75 0 144-26.2 198.3-69.9v-87.1A322.5 322.5 0 0 1 296.2 355a322.5 322.5 0 0 1-198.3-67.8zm79.7 115.7 15.7-44.3 10.2 3.6q11.2 4 6.6 17-1.4 3.9-3.6 6.2-2.2 2.3-5.8 2.9l-.3 22.6-6.8-2.3.8-21-3.7-1.4-6.8 18.9zm20-36-4.9 13.8 3.6 1.2q1.7.6 2.8.5 1.2-.1 2.1-.8.8-.6 1.4-1.9l1.2-2.8q.6-1.7.9-3.1.3-1.3 0-2.4-.5-2.2-3.8-3.4zm19.8 11.8q.7-2.7 2.2-4.6 1.5-1.9 3.4-2.9t4-1.2q2.2-.2 4.1.2 2 .5 3.8 1.7 1.8 1.2 3.1 2.9 1.2 1.8 1.6 4.2.4 2.3-.2 5.1l-5.9 24.1q-.7 2.9-2.2 4.7-1.5 1.8-3.3 2.8-2 1-4.1 1.2-2.1.2-4.1-.2-2-.5-3.8-1.7-1.8-1.2-3-3-1.2-1.7-1.7-4t.2-5.2zm.7 25.7q-.6 2.4.4 3.8 1.1 1.5 2.9 1.9 1.8.5 3.4-.3 1.5-.8 2.1-3.2l5.9-24.1q.6-2.4-.4-3.8-1.1-1.5-2.9-1.9-1.8-.4-3.3.3-1.6.9-2.2 3.2zm209-6.6-20.9-42.1 6-3 9.6 19.3.1-.1-.8-23.6 6.1-3 .1 20.9 22.3 20.5-6.4 3.1-16.1-15.3-.2 7.7 6.2 12.6zm27.1-13.7-15.9-45.4 4.7-3 33.8 34.4-5.7 3.5-7-7.5-7.8 4.9 3.7 9.6zm5.4-22.8-11.8-12.7-.2.1 6.3 16.2zM352 373.1l-2.4 47.9-5.8.9-16.7-45 7.1-1 10.3 31.5h.1l.3-33.2zm15.2 44.5-11.8-45.5 19.4-5 1.6 6.1-12.9 3.3 3.5 13.4 11.2-2.9 1.6 6.1-11.2 2.9 3.5 13.4L385 406l1.7 6.5zm4.4-61.4-3.9 10.6-6 1.5-8.7-7.3 5-1.3 5.9 4.9 2.7-7.2zm24.3 53.6-16.2-44.1 9.4-3.4q5.4-2 9.3-.1 4 2 5.9 7.4l7.6 20.7q2.3 6.2.3 10.2-1.9 4.1-7.5 6.1zm-7.7-40.5 11.8 32.3 2.9-1.1q2.7-1 3.3-2.7.7-1.7-.4-4.6l-7.8-21.3q-.9-2.6-2.5-3.6t-4.4 0zM241.8 421l6.1-46.6 10.8 1.5q11.7 1.5 9.9 15.2-.5 4.1-2.2 6.8-1.6 2.7-5.1 4.1l4.4 22.2-7.1-.9-3.5-20.7-4-.6-2.7 19.9zm12-39.4-1.9 14.5 3.8.5q1.8.3 2.9-.1 1.1-.3 1.8-1.2.7-.8 1-2.1.4-1.4.6-3.1.3-1.8.3-3.2-.1-1.3-.5-2.4-1-2-4.5-2.4zm22 7.4q.1-2.9 1.1-5 1.1-2.2 2.8-3.6 1.6-1.3 3.7-2 2-.6 4-.6 2.1.1 4.1.9 2 .8 3.6 2.2 1.5 1.5 2.4 3.7.9 2.2.9 5.1l-.8 24.8q-.1 2.9-1.2 5-1 2.1-2.7 3.4-1.6 1.4-3.7 2.1-2 .7-4.1.6-2-.1-4-.9-2-.7-3.5-2.3-1.6-1.4-2.6-3.5-.9-2.2-.8-5.1zm6 25q-.1 2.4 1.2 3.6 1.3 1.2 3.2 1.3 1.8 0 3.2-1.1 1.4-1.1 1.5-3.5l.7-24.8q.1-2.5-1.2-3.7-1.3-1.2-3.2-1.2-1.8-.1-3.2 1-1.4 1.1-1.5 3.6zm24.6 11.4-.4-6 10.5-35.4-12 .7-.4-6.3 19.3-1.2.4 5.4-10.8 36 12.9-.8.4 6.3zm-183.2-51.2 33.2-34.9 4.8 2.9-15.2 45.7-5.8-3.5 3.5-9.6-7.8-4.8-6.9 7.7zm22.7-5.5 5.9-16.3-.1-.1-11.6 12.9zm4.9 22 20.1-42.5 18.1 8.5-2.7 5.8-12.1-5.7-5.9 12.4 10.6 5-2.8 5.7-10.5-4.9-5.8 12.4 12 5.7-2.9 6.1zM431 153.3a165.2 165.2 0 0 0-269-.2l38.4 34.5-.3.2-1.6.6-1.8.4-.3.1-35.1-31.5v160.2c40.5 19.1 85.6 30 133.3 30.2v-13.7q1.9-.3 3.7-.8v9.7c-.6 1.9-1.4 3.6-2.4 4.8h.5c48.4 0 94.2-10.8 135.2-30.2v-160l-22.3 20v-2l.8-1.6.8-2.8zm-136.4 146v-3.9l2.1 2.2 1.6 1.8v.3l-1.3-.2-2.4-.2zm-79.8-93.9-10.5-9.5q1.1.2 2.2.1c.8.8 1.8 1.4 3.1 1.5H211.5l1.8 1.6c-.5 1.9-.1 3.1.6 4.9l.9 1.4zm116.6 41.9-3.8 3.4c-.8-.8-1.9-1.5-2.3-2.1l-.3-.5 5.4-4.9a13 13 0 0 0 1 4.1z" class="a"/></svg>
