<?xml version="1.0" encoding="UTF-8"?>
<svg width="157px" height="80px" viewBox="0 0 157 80" version="1.1" xmlns="http://www.w3.org/2000/svg" xmlns:xlink="http://www.w3.org/1999/xlink">
    <title>Group 18</title>
    <g id="V0.6" stroke="none" stroke-width="1" fill="none" fill-rule="evenodd">
        <g id="Homepage" transform="translate(-40.000000, -32.000000)" fill-rule="nonzero">
            <g id="Group-18" transform="translate(40.000000, 32.000000)">
                <polygon id="Path" fill="#406F35" points="104.987241 19.1645586 104.110186 19.4853291 100.440808 23.9813804 115.369865 54.7678973 119.935538 48.3925522 118.381451 45.9103692 110.333252 27.5860032 107.328122 18.7477368"></polygon>
                <path d="M106.631592,17.824077 L110.326795,25.8221509 L117.020672,40.7857464 L120.6127,47.8408989 L154.553279,54.665297 C154.785714,54.665297 154.3273,52.4460995 154.223996,52.2344783 L142.442112,27.5795827 L138.649544,22.4485393 L106.631592,17.824077 Z" id="Path" fill="#406F35"></path>
                <polygon id="Path" fill="#406F35" points="100.318263 26.1557624 94.1467207 34.5834992 87.3302994 45.2304334 90.6449548 52.9078652 95.707265 66.3577528 100.879207 75.10626 105.961016 68.0445586 110.436427 61.8295987 114.370264 55.2168218"></polygon>
                <polygon id="Path" fill="#406F35" points="148.568072 61.3485714 129.447692 58.8407063 121.296318 57.2950241 115.363408 56.4227287 111.584399 62.1245586 102.381901 75.7732263 112.07445 77.1009952 127.99665 79.8845586 133.335817 80 144.989861 66.1204494"></polygon>
                <polygon id="Path" fill="#406F35" points="120.825507 49.6624077 115.369865 54.7678973 118.188013 55.7492135 119.548663 56.134061 126.358628 57.3141573 150.915668 60.8033387 151.837661 59.4564366 153.618373 58.0261958 154.553279 54.6588764 150.096979 53.2670305 142.989627 53.1323274"></polygon>
                <path d="M156.707179,35.4044302 C156.14546,33.5379775 154.579105,30.9660353 150.258393,29.3497271 C145.537375,27.5795827 139.19835,29.4010915 135.219833,30.9531942 C134.873763,32.1317496 134.34691,33.2502087 133.658643,34.2692777 L131.595135,34.0703692 L131.078612,35.5583949 C134.111892,38.282504 137.283342,40.8513644 140.578757,43.2550883 C143.454497,45.3587159 146.047441,46.1990369 148.317558,46.1990369 C149.687635,46.1914607 151.035759,45.8572071 152.250879,45.2245265 C153.464707,44.5918459 154.508083,43.6788443 155.294489,42.5623114 C156.070565,41.5589085 156.601292,40.3903692 156.84664,39.1483788 C157.090697,37.9065169 157.042919,36.6249759 156.707179,35.4044302 L156.707179,35.4044302 Z M152.244423,41.5617335 C150.129262,44.4223435 145.459896,43.3191653 141.468467,40.4008989 C138.528161,38.252199 137.251059,36.1164687 135.599478,34.6989406 C139.308111,33.1468379 145.272657,31.3252006 148.98129,32.7298876 C151.290147,33.5957624 152.759654,34.8785875 153.224524,36.4306902 C153.548642,38.2012199 153.205155,40.0285072 152.257336,41.5617335 L152.244423,41.5617335 Z" id="Shape" fill="#E50F74"></path>
                <path d="M121.077054,19.8828892 L124.868976,26.2967576 C127.177704,27.6757624 129.699497,29.2279936 131.543483,30.5813162 C131.565435,30.0930979 131.512491,29.6044944 131.388526,29.1316854 L126.532825,20.7039486 L121.077054,19.8828892 Z" id="Path" fill="#E50F74"></path>
                <path d="M135.135898,34.7567255 C136.440118,35.7293098 137.820525,36.5978812 139.262915,37.3543499 L147.781666,38.7139647 L145.47281,34.1217335 L141.604054,33.5508186 C139.473398,34.0810273 137.314333,34.4837239 135.135898,34.7567255 L135.135898,34.7567255 Z" id="Path" fill="#E50F74"></path>
                <path d="M136.456905,40.8434029 C131.67907,36.2062279 132.75602,36.1612841 132.58815,36.0073194 L131.169004,35.3660353 L131.097982,35.5648154 C127.846342,34.2412841 124.740878,32.5861958 121.831564,30.6261316 L112.093819,29.1830498 L105.593381,37.3286677 L106.025452,37.9699518 L91.8959729,57.7567897 L93.6436276,62.3939647 L108.211635,42.3314286 L107.856913,41.3372713 L114.518506,33.3969823 L130.569837,35.962504 L139.527633,51.1504334 L134.651658,59.6487961 L132.446106,59.3666774 L118.091165,78.5376565 L123.140691,79.3137721 L136.89595,60.20687 L138.60564,60.392809 L144.279642,51.5288604 L140.268843,44.5570465 C138.86261,43.267801 137.489951,41.8504013 136.456905,40.8434029 Z" id="Path" fill="#E50F74"></path>
                <path d="M133.652187,37.0656822 L131.427265,35.7828571 C129.667214,35.1414446 124.333729,31.5369502 124.333729,31.5369502 C124.333729,31.5369502 122.173373,29.7923596 120.748158,28.5801605 C119.369171,27.2792295 118.062498,25.9045907 116.83369,24.4624077 C116.160919,22.9385554 115.868309,21.275634 115.980524,19.6151525 C116.092868,17.9545425 116.606808,16.3455538 117.478569,14.9250722 C118.164769,13.8435955 119.117366,12.9542215 120.245969,12.3414061 C121.374442,11.7285522 122.64173,11.4124559 123.927484,11.4230754 C125.90073,11.3845907 128.822054,12.1157624 131.666157,15.7267416 C136.445284,21.8007063 134.246188,34.0255538 134.123514,34.5449759 L133.652187,37.0656822 Z M124.037116,15.0533547 L123.972551,15.0533547 C123.259104,15.0930337 122.564639,15.2968218 121.94365,15.6485393 C121.32266,16.0001284 120.792062,16.4901445 120.393436,17.0800642 C118.278275,19.9470947 119.348769,23.2630498 123.340585,26.1748957 C126.287735,28.3300161 129.047774,30.1130016 130.905577,31.2611236 C131.285221,27.2780738 131.840483,20.9989085 128.7899,18.0870626 C127.480773,16.8234992 125.649313,15.0533547 124.037116,15.0533547 Z" id="Shape" fill="#E50F74"></path>
                <polygon id="Path" fill="#FED215" points="43.3620768 3.21334189 42.5300878 7.70945746 42.8139171 11.5770144 45.8577855 8.35725201 45.7223274 13.3023435 52.4549429 11.5000449 49.4561411 16.4323596 53.7962233 16.8941252 57.9493243 17.0736437 50.6943752 19.607191 47.4635255 20.1458748 52.222766 22.5832424 45.8384159 23.4105939 48.7145436 29.0098234 42.5300878 25.1551846 41.3693321 32.7491493 39.2348019 24.0904013 31.296235 34.0255538 36.3328481 22.3650722 29.6002326 24.1674478 34.6819123 19.4211236 32.1023978 18.9144141 27.4205067 16.7465811 29.1294221 16.2013483 32.9148881 15.0084109 27.6074879 8.41498555 31.6380439 10.1916148 36.4746336 13.1612199 35.1848763 6.00978491 36.809986 8.14560514 39.1058004 11.153695"></polygon>
                <path d="M29.9097588,33.4482183 L33.134152,24.8986196 L30.7416187,25.1423435 L28.9875075,24.7895987 L29.9097588,23.6864205 L31.9927659,20.7167897 L28.6973509,19.7995506 L25.6341128,18.9529374 L30.3482866,16.3874157 L27.8784041,13.943756 L23.2158825,9.07560835 L33.3727855,12.0131493 L31.8831339,4.74624719 L34.1337526,6.24068058 L37.6161488,9.33856822 L40.4987331,0 L41.1436117,5.32350562 L41.833686,10.3904462 L47.1990659,6.41385554 L46.8701701,10.2621637 L46.354293,11.9939133 L53.8864857,10.9548636 L48.9467206,16.4964366 L55.2149821,18.0870626 L58.3169594,18.3628892 L54.4475585,20.4730658 L50.1978677,21.6531621 L53.8026799,24.2186838 L45.6900447,23.9237239 L47.0765209,29.9270626 L46.5219046,31.7678331 L44.1230439,29.5614767 L41.8401426,27.5795827 L38.5318145,32.9159551 L37.1388818,27.7847833 L30.7157926,35.2761477 L29.9097588,33.4482183 Z M36.3585451,22.211236 L31.8443947,32.4092456 L35.6298607,26.0722953 L38.4092695,23.3335474 L39.6990267,27.6181059 L41.4016148,25.1102408 L44.6647471,27.4769823 L43.4071434,21.8712039 L47.7536822,23.558138 L43.0847041,20.0111717 L49.9978443,20.5243018 L53.0739954,19.7610273 L44.4970064,17.689374 L46.6122961,15.9704655 L49.9978443,12.9688604 L43.4135999,15.3227608 L44.5357456,10.8330016 L41.0210667,14.0078331 L39.9376602,7.21558909 L39.2927816,10.6469984 L38.157852,12.4941894 L34.8882632,10.1274735 L35.326791,13.9757303 L36.319935,15.3932584 L28.7876132,12.5070177 L32.3796414,15.0726164 L34.9591559,17.176244 L30.4450055,18.6771108 L34.0564033,20.2805778 L31.4767597,23.2887319 L36.3585451,22.211236 Z" id="Shape" fill="#E50F74"></path>
                <path d="M119.142418,28.5480578 C118.064951,27.6570144 117.174854,26.5632103 116.523002,25.3294382 C115.871279,24.0956661 115.470587,22.7461958 115.344039,21.3580738 C109.875483,14.5659069 104.426169,8.72925843 87.9687215,16.0666453 C85.6922767,17.0800642 73.4329971,22.4805136 73.4329971,22.4805136 C73.4329971,22.4805136 51.1199899,32.2745425 42.0142107,19.0170144 C41.8657105,18.840321 41.6822158,18.6959872 41.4752193,18.59313 C41.2680937,18.4901445 41.0418567,18.4308186 40.8105837,18.418748 C40.5794397,18.4066774 40.3481667,18.4422472 40.1313563,18.5231461 C39.914675,18.6040449 39.7169759,18.7284751 39.5507847,18.8888604 L39.1122569,19.4917496 C39.1122569,19.4917496 38.6995553,20.7744462 39.4217832,21.5377207 C45.9480479,28.3685393 55.6728795,30.0489246 59.6324137,29.7345746 C63.5920769,29.4203531 74.7227543,26.3738042 75.000127,26.1877368 L79.7141717,23.6222151 C79.914066,23.5196148 86.3306987,20.2357624 88.3040738,19.350626 C103.845726,12.4236404 107.005683,17.4263884 113.196595,25.0524559 C116.214638,28.7660995 118.768326,31.3701445 123.127778,33.1660995 C123.224497,33.2044944 126.861721,33.9099839 127.583949,33.9677689 C124.556738,32.5133868 121.721416,30.6930337 119.142418,28.5480578 L119.142418,28.5480578 Z" id="Path" fill="#E50F74"></path>
                <path d="M7.24205556,33.4546388 L1.93465538,33.4546388 C1.05116391,33.4546388 0.335342181,33.5188443 0.335342181,34.3975602 L0.335342181,55.9095987 C0.335342181,56.2497592 0.47122898,56.5760514 0.713107535,56.816565 C0.95498609,57.0572071 1.28304905,57.1922953 1.62511622,57.1922953 L7.19691147,57.1922953 C8.29785384,57.1922953 9.38800089,56.9766934 10.4051374,56.5576886 C11.422274,56.1386838 12.3464623,55.5244944 13.1249654,54.7501766 C13.9033651,53.9759872 14.5209972,53.0568218 14.9422215,52.0452006 C15.3635749,51.0335795 15.5803853,49.9492777 15.5803853,48.8543178 L15.5803853,41.0486035 C15.7931926,35.1799679 11.8207326,33.4546388 7.24205556,33.4546388 Z M9.31858023,49.8934189 C9.31858023,50.3166613 8.42219378,50.7657143 8.02881007,50.7976886 L5.77816558,50.9901766 C5.63723235,51.001862 5.49540812,50.9840128 5.36183534,50.9377849 C5.22824965,50.8916854 5.10588542,50.8181059 5.00259379,50.7220546 C4.89931507,50.6260032 4.81742039,50.5094061 4.76217828,50.3799679 C4.70693617,50.2505297 4.67957338,50.110947 4.681859,49.9703371 L4.81083472,39.0668379 C4.81251342,38.9592295 4.83557616,38.8531621 4.8786929,38.7545425 C4.92182254,38.655923 4.98415392,38.5668058 5.06208429,38.492199 C5.14002757,38.4177207 5.23203318,38.3592937 5.33279385,38.3202568 C5.43356744,38.2812199 5.54109456,38.2624719 5.64918985,38.2650401 L8.55761312,38.3292456 C8.70475754,38.3330979 8.84956468,38.3667416 8.98330533,38.4278652 C9.11705889,38.4889888 9.23695673,38.5764366 9.33579335,38.6849438 C9.43462998,38.793451 9.5103393,38.9207063 9.558363,39.0591332 C9.6063867,39.1974318 9.62573047,39.344077 9.61523215,39.4900803 L9.31858023,49.8934189 Z" id="Shape" fill="#E50F74"></path>
                <path d="M33.2437839,55.8967576 C32.3279891,51.9072873 28.9359844,37.2003852 28.1169084,34.4873194 C28.077911,34.3666132 28.00379,34.2601605 27.9038428,34.1814446 C27.8040248,34.1027287 27.6829002,34.0550883 27.5559648,34.044687 L22.3194573,33.6214446 C22.1465513,33.6092456 21.9750658,33.6588122 21.8356047,33.7610273 C21.6961435,33.8632424 21.5978751,34.0116854 21.5584902,34.17939 L16.4703539,56.6279294 C16.4482726,56.7296308 16.4493056,56.8349278 16.473324,56.936244 C16.4973423,57.0374318 16.5438293,57.1320706 16.6092986,57.2132263 C16.6748969,57.2942536 16.7576697,57.3598716 16.8519351,57.4050722 C16.9462005,57.4502729 17.0493759,57.4740289 17.1539718,57.4745425 L20.3783649,57.4745425 C20.5441687,57.4730016 20.7050655,57.4186838 20.8374245,57.3192937 C20.9697834,57.2200321 21.0665023,57.0810915 21.1135059,56.9230177 L22.7063329,50.7015088 C22.7480421,50.5353451 22.8441153,50.3876726 22.9797025,50.2819904 C23.1151606,50.1761798 23.2822557,50.1185233 23.4543869,50.1178812 L26.162903,50.1178812 C26.2553605,50.118138 26.3449772,50.1493419 26.4174195,50.2063563 C26.489991,50.2632424 26.5411267,50.3428571 26.5628207,50.4321027 C26.8658904,51.7725843 28.0395592,56.9293098 28.0395592,57.1987159 C28.0395592,57.468122 30.8706202,57.1987159 32.4376211,57.025618 C32.5698509,57.0148315 32.6980777,56.9755377 32.8133914,56.9101766 C32.9287051,56.8449438 33.0282648,56.7554414 33.1050976,56.6478331 C33.1819303,56.5403531 33.2340991,56.4173355 33.2581174,56.2876404 C33.2820066,56.157817 33.2770996,56.0243981 33.2437839,55.8967576 L33.2437839,55.8967576 Z M25.795397,45.2625361 L22.9837056,45.3908186 L24.6281848,38.8102729 L26.162903,44.7174318 C26.1802065,44.7775281 26.1840804,44.8405778 26.1743956,44.9023435 C26.1645817,44.9641091 26.1413381,45.0229213 26.1063437,45.0747994 C26.0713493,45.1266774 26.0253788,45.1704655 25.9716604,45.202825 C25.9179421,45.235313 25.8577672,45.2556019 25.795397,45.2625361 L25.795397,45.2625361 Z" id="Shape" fill="#E50F74"></path>
                <path d="M30.9544261,27.0664526 C29.8774762,26.9189085 25.7051347,26.4956661 25.7051347,26.4956661 L22.854704,32.0692135 L27.6977503,32.2745425 L31.038361,27.3165971 C31.0556645,27.2964366 31.0674154,27.2721669 31.0724515,27.2460995 C31.0776167,27.2200321 31.0758089,27.1931942 31.0674154,27.1680257 C31.0590219,27.1428571 31.0441719,27.1202568 31.0244149,27.1024077 C31.0045288,27.084687 30.9805105,27.0722311 30.9544261,27.0664526 Z" id="Path" fill="#E50F74"></path>
                <path d="M78.9467481,33.4034029 L82.1196181,33.5829213 C82.4349552,33.6026966 82.7395745,33.7043981 83.0031302,33.8780096 L83.4287449,34.1601284 C83.5880922,34.2660674 83.7049555,34.4242697 83.7591903,34.6069984 C83.8134252,34.7898555 83.8014161,34.9858106 83.7253581,35.1607063 L79.546431,44.8969502 L86.4145046,56.3071589 C86.4704181,56.3994864 86.501926,56.5043981 86.5063165,56.6121348 C86.5107069,56.7197432 86.4877217,56.8268379 86.4395559,56.9232745 C86.3913902,57.0198395 86.3194644,57.1026645 86.2306225,57.1643018 C86.1416514,57.225939 86.0386051,57.2642055 85.9309102,57.2757624 L80.771752,57.3976244 L75.612723,47.3727127 L75.6836157,57.0832745 L69.2992657,56.9935152 C69.1862763,56.9894061 69.0753531,56.9629535 68.9726942,56.9158266 C68.8701644,56.8685714 68.7780942,56.8015409 68.7019071,56.7184591 C68.6255909,56.6355056 68.5667073,56.5382986 68.5287429,56.4323596 C68.4906493,56.326549 68.4742497,56.2141894 68.4803189,56.1019583 L69.2734395,44.672488 L69.5637253,33.7689888 L73.9359611,33.5700803 L74.2713135,37.418427 L74.5937528,41.0871268 L78.3533926,33.6919422 C78.417054,33.5951204 78.5056377,33.517175 78.6101044,33.4663242 C78.7145711,33.4156019 78.8309178,33.3937721 78.9467481,33.4034029 Z" id="Path" fill="#E50F74"></path>
                <path d="M52.0743948,33.4226645 C51.4295162,33.7176244 51.5714308,55.2296629 52.3065718,56.1661637 C53.0417128,57.1025361 52.8095358,57.1282183 54.1638584,57.2051364 C55.5180519,57.282183 64.3788701,57.3205778 65.0752719,57.1282183 C65.7718028,56.9357303 66.313506,54.0495666 65.9265014,53.087512 C65.5396258,52.1254575 65.3783416,52.2792937 64.4562194,52.0869342 C63.5339681,51.8944462 56.9174411,51.1825361 56.9174411,51.1825361 L57.1045514,48.3155056 C57.1045514,48.3155056 64.7657457,48.2771108 65.2687097,48.0077047 C65.7718028,47.7382986 66.5069438,43.5821509 66.0813291,42.774061 C65.6557143,41.9658427 58.1621317,41.8632424 57.5301661,41.7349599 C56.8982006,41.6066774 57.5687762,39.079679 57.5687762,39.079679 C57.5687762,39.079679 65.3074489,38.8102729 65.3847982,38.117496 C65.4622766,37.4248475 65.8491521,34.0767897 65.6557143,33.6278652 C65.4622766,33.1788122 64.5335687,33.1660995 62.4828443,33.089053 C60.43212,33.0121348 52.5773588,33.1916533 52.0743948,33.4226645 Z" id="Path" fill="#E50F74"></path>
                <path d="M50.0946923,55.8903371 C49.8689719,55.107801 47.0765209,45.9744462 47.0765209,45.9744462 C47.0765209,45.9744462 48.9725467,45.4357624 49.0950917,43.7680899 C49.1918106,42.4853933 49.0950917,37.4248475 48.3662781,35.8854575 C47.6698764,34.4808989 45.8255028,32.9350883 41.2726132,33.2558587 C39.0878512,33.3648796 36.9135488,33.6263242 34.7657182,34.0382665 C34.9205458,35.0388443 35.1913329,57.0511717 35.7330361,57.2436597 C37.3457492,57.3811878 38.9691801,57.3294382 40.5696258,57.089695 C41.343506,56.8973355 41.3822452,56.7433708 41.3822452,56.012199 L41.3822452,48.0077047 L42.5752836,48.0077047 L46.0253971,56.8395506 C46.0253971,56.8395506 47.6311372,56.8395506 48.3662781,56.9101766 C48.8693713,56.954992 50.3461098,56.7626324 50.0946923,55.8903371 Z M44.2583729,43.0626003 C42.6169928,43.1093419 40.9743214,43.0643981 39.3379774,42.9278973 L39.2218889,39.1951204 C40.2988388,38.752488 44.1745671,38.5537079 44.3809179,39.0795506 C44.5872687,39.6055217 44.8581849,42.9343178 44.2583729,43.0433387 L44.2583729,43.0626003 Z" id="Shape" fill="#E50F74"></path>
                <path d="M7.59029518,63.1829213 C7.40327521,62.6055859 6.4939886,60.8609952 4.62382767,60.6943178 C3.10534123,60.5946709 1.58077275,60.6397432 0.0709372947,60.8290209 L0,74.7983307 L2.69562249,75.1639165 L3.18572508,74.9330337 L3.72098468,70.2188122 C3.72098468,70.2188122 6.94540364,69.8917496 7.34523097,68.230626 C7.69685382,66.5716854 7.77958785,64.8676726 7.59029518,63.1829213 L7.59029518,63.1829213 Z M4.01762368,67.1465811 L3.03096196,67.2364687 C2.99316541,67.2399358 2.95504603,67.2358266 2.9188507,67.2243981 C2.88266829,67.2130979 2.84915887,67.1946067 2.82028525,67.1700803 C2.79142455,67.1455538 2.76780654,67.1155056 2.75082586,67.0817335 C2.73383226,67.0479615 2.72383755,67.0111075 2.72140989,66.9734831 C2.66982218,66.2230498 2.54084646,64.1962119 2.55374661,63.952488 C2.56663385,63.708764 3.40498898,63.7280257 4.00473644,63.7280257 C4.16325726,63.7313644 4.31414647,63.7963403 4.42505681,63.9090851 C4.53596715,64.0218299 4.5980661,64.1732263 4.59802738,64.3309149 L4.59802738,66.5372713 C4.59104139,66.691236 4.52852922,66.8376244 4.42195767,66.9494703 C4.31537321,67.0614446 4.17184445,67.1314286 4.01762368,67.1465811 L4.01762368,67.1465811 Z" id="Shape" fill="#406F35"></path>
                <path d="M16.2769162,68.4486677 C16.2769162,67.8905939 17.4699546,68.3716212 17.5279342,66.0114286 C17.598827,63.4843018 17.1346022,61.4767255 15.9028246,61.2010273 C13.5619436,60.9689888 11.2044047,60.9539647 8.86069575,61.1560835 C8.68013231,61.1946067 9.37015503,74.9330337 9.37015503,74.9330337 L12.8073943,74.8882183 L12.8073943,69.5711075 L13.5748567,69.615923 L15.5094925,74.7983307 L17.2248645,74.7983307 C17.4824802,74.7992295 17.7318316,74.7081862 17.9277228,74.5417657 L18.1792694,74.336565 C18.1792694,74.336565 16.2961567,69.0066132 16.2769162,68.4486677 Z M11.6272561,66.5244302 L11.6079123,64.023114 C11.736888,64.023114 13.065307,64.023114 13.897296,64.0550883 C14.0779498,64.0573997 14.252018,64.1228892 14.3887673,64.2402568 C14.5256459,64.3576244 14.6164247,64.5191653 14.64535,64.6965008 C14.6775036,64.9659069 14.7162428,65.286549 14.7356124,65.5623756 C14.7443932,65.6808989 14.7286393,65.7998074 14.6893836,65.9120385 C14.6499987,66.0241413 14.5878869,66.1269984 14.5067928,66.2141894 C14.4256987,66.3015088 14.3275594,66.3711075 14.2181857,66.4190048 C14.1089412,66.4669021 13.9909157,66.4918138 13.8714698,66.4924559 L11.6272561,66.5244302 Z" id="Shape" fill="#406F35"></path>
                <path d="M26.1307494,62.5222472 C25.4858708,61.2907865 25.0150603,60.649374 23.7382161,60.649374 C22.8754941,60.6579775 22.0141924,60.7179454 21.1587016,60.8290209 C20.159101,61.2458427 18.7855379,61.9386196 18.7855379,64.9018299 C18.7855379,67.8650401 18.6951465,71.53374 18.9273234,72.2970144 C19.1595004,73.0601605 19.301415,74.4712681 20.4879969,74.8625361 C21.6745787,75.2538042 24.1186351,75.0805778 25.0021473,75.0036597 C26.0790971,74.9073515 26.7691715,72.3996148 26.7562584,69.4876404 C26.7175192,68.3011236 26.762715,63.7472873 26.1307494,62.5222472 Z M23.6221277,71.0270305 C23.5769319,71.719679 23.6221277,71.9505618 23.2480361,71.976244 L22.0743673,72.0404494 C21.9946937,72.0482825 21.9142453,72.0399358 21.837929,72.0157945 C21.7616128,71.9916533 21.6911074,71.9522311 21.6306743,71.8999679 C21.5703702,71.8477047 21.5213006,71.783756 21.4866936,71.7118459 C21.4520865,71.6400642 21.4325878,71.5619904 21.4294887,71.4823756 C21.3521394,69.686549 21.1328755,64.3501766 21.3392263,64.2989406 C21.9461405,64.2414125 22.557316,64.2414125 23.1642303,64.2989406 C23.3005923,64.3054896 23.428819,64.3649438 23.5215349,64.4644623 C23.6143798,64.5639807 23.6643534,64.6956019 23.6608669,64.8312039 C23.6801073,66.2871268 23.6608669,70.456244 23.6221277,71.0270305 L23.6221277,71.0270305 Z" id="Shape" fill="#406F35"></path>
                <path d="M42.9427895,60.6686356 C42.5752836,60.8930979 42.4785647,71.9314286 42.7107416,72.7138363 C42.9427895,73.4963724 43.8585843,75.4076404 45.6385216,75.535923 C47.4183298,75.6642055 48.7080871,75.7219904 49.3335961,75.4461637 C49.9592342,75.1703371 51.6875193,74.8432745 51.7777816,72.0211878 C51.868044,69.1991011 51.7068889,61.3741252 51.5649743,61.0149599 C51.4230597,60.6557945 49.2433337,60.854703 48.9854598,60.8802568 C48.7274567,60.905939 48.9854598,71.2514928 48.7532828,71.5849759 C48.5211058,71.9185875 46.5929265,71.9569823 46.2704872,71.5849759 C45.9480479,71.2129695 46.4058161,63.8884109 46.3865756,63.0546388 C46.367206,62.2207384 46.5735569,61.1304013 46.3349234,60.8354414 C46.0962899,60.5403531 43.2459883,60.4826966 42.9427895,60.6686356 Z" id="Path" fill="#406F35"></path>
                <path d="M53.0095592,60.598138 L52.9385373,63.2148957 L55.3375272,63.5164045 C55.3375272,63.5164045 55.4536156,75.1446549 55.6148999,75.1446549 L58.2653071,75.1895987 L58.6844653,64.4591974 C58.6844653,64.4591974 60.8319086,64.7863884 61.0899117,64.600321 C61.3479148,64.414382 61.5799626,61.2458427 61.3929814,61.1111396 C61.2060001,60.976565 53.5254363,60.5018299 53.0095592,60.598138 Z" id="Path" fill="#406F35"></path>
                <path d="M66.1457653,60.6686356 C66.1457653,60.6686356 66.7068381,74.336565 66.5907496,74.7021509 C66.4746611,75.0677368 65.4750605,75.4911075 64.8430949,75.4911075 C64.2360516,75.463114 63.6310744,75.4009631 63.0310041,75.3050401 L62.6569125,60.8802568 C62.6569125,60.8802568 66.1328522,60.2516854 66.1457653,60.6686356 Z" id="Path" fill="#406F35"></path>
                <path d="M68.7898451,60.5917175 C68.6848619,60.5917175 68.5841399,60.6326806 68.5093733,60.7058748 C68.4346066,60.779069 68.3917352,60.8785875 68.3900565,60.9829856 C68.3125781,63.26626 67.9257026,75.0163724 68.2416854,75.0934189 C69.0961431,75.2292777 69.9667422,75.2292777 70.8211999,75.0934189 C71.1049,74.9330337 71.2403581,69.1798395 71.2209885,68.8527769 C71.201748,68.5255859 74.03268,74.6764687 74.3809454,74.7726485 C74.7292109,74.8689567 76.5864975,75.0934189 76.7993048,74.8882183 C77.0121122,74.6828892 77.1217441,61.6820546 77.0056557,61.1753451 C76.8895672,60.6686356 76.7993048,60.4826966 75.9609884,60.5339326 C75.1225429,60.585297 73.8908945,60.6301124 73.8908945,60.6301124 L73.8908945,65.6458427 C73.8908945,65.6458427 72.7300096,63.0417978 72.291611,62.2144462 C71.8530832,61.3869663 71.6467323,60.9316212 71.079203,60.72 C70.3222389,60.6014767 69.5553318,60.5584591 68.7898451,60.5917175 L68.7898451,60.5917175 Z" id="Path" fill="#406F35"></path>
                <path d="M88.2847042,74.6123917 C88.2136824,74.3558266 85.1891835,61.5280899 85.1891835,61.5280899 C84.7958515,61.1304013 81.5004364,60.7328411 81.1973667,61.0599037 C80.894297,61.3869663 77.7278836,75.0741573 77.9149939,75.2345425 C78.7489199,75.4013483 79.6035067,75.4402568 80.4493127,75.3499839 C80.6556635,75.2602247 81.6100684,71.0270305 81.861615,70.8218299 C82.1131615,70.6165008 84.0477974,70.8218299 84.0477974,70.8218299 C84.0477974,70.8218299 84.692676,74.9587159 84.9828327,75.0741573 C85.9466641,75.1895987 86.9209551,75.1895987 87.8847865,75.0741573 C88.1169635,74.9137721 88.3491404,74.8689567 88.2847042,74.6123917 Z M83.9317089,67.8586196 C83.3980118,67.9743178 82.8484316,67.9982022 82.3065993,67.9291172 C82.1196181,67.8136758 82.9837606,63.7472873 82.9837606,63.7472873 C82.9837606,63.7472873 84.1445163,67.7879936 83.9317089,67.8586196 Z" id="Shape" fill="#406F35"></path>
                <path d="M41.2726132,63.1829213 C41.085632,62.6055859 40.1762937,60.8609952 38.3125506,60.6943178 C36.7920368,60.5946709 35.2653248,60.6397432 33.7533336,60.8290209 L33.6823117,74.7983307 L36.3843713,75.1639165 L36.8680948,74.9330337 L37.4033415,70.2188122 C37.4033415,70.2188122 40.6277346,69.8917496 41.0275232,68.230626 C41.3825034,66.572199 41.4652762,64.8675441 41.2726132,63.1829213 L41.2726132,63.1829213 Z M37.6999546,67.1465811 L36.7132671,67.2364687 C36.6758192,67.2399358 36.6379839,67.2358266 36.6022147,67.2243981 C36.5664455,67.2128411 36.5332589,67.1943499 36.5049793,67.169695 C36.4765706,67.1450401 36.4535853,67.114992 36.4373148,67.0812199 C36.4210444,67.0475762 36.411747,67.0108507 36.4101974,66.9734831 C36.3585451,66.2230498 36.2232162,64.1962119 36.2425858,63.952488 C36.2618262,63.708764 37.0938152,63.7280257 37.6934981,63.7280257 C37.8514249,63.7313644 38.0017331,63.7965971 38.1114941,63.9094703 C38.2213843,64.0223435 38.2820758,64.1738684 38.2803971,64.3309149 L38.2803971,66.5372713 C38.2743279,66.6873836 38.2154443,66.8305618 38.1140767,66.9418941 C38.0127092,67.0532263 37.8753141,67.1257785 37.7257808,67.1465811 L37.6999546,67.1465811 Z" id="Shape" fill="#406F35"></path>
            </g>
        </g>
    </g>
</svg>